solid vcg
  facet normal 3.826834e-001 -9.238796e-001 0.000000e+000
    outer loop
      vertex  1.044084e+000 4.182081e-001 2.008161e+000
      vertex  1.044084e+000 4.182081e-001 2.010100e+000
      vertex  6.116516e-001 2.390888e-001 2.010100e+000
    endloop
  endfacet
  facet normal 3.826835e-001 -9.238796e-001 0.000000e+000
    outer loop
      vertex  2.380758e+000 9.718768e-001 1.540100e+000
      vertex  2.380758e+000 9.718768e-001 2.008161e+000
      vertex  1.044084e+000 4.182081e-001 1.540100e+000
    endloop
  endfacet
  facet normal 3.826835e-001 -9.238796e-001 0.000000e+000
    outer loop
      vertex  1.044084e+000 4.182081e-001 1.540100e+000
      vertex  2.380758e+000 9.718768e-001 2.008161e+000
      vertex  1.044084e+000 4.182081e-001 2.008161e+000
    endloop
  endfacet
  facet normal 3.826834e-001 -9.238796e-001 0.000000e+000
    outer loop
      vertex  1.044084e+000 4.182081e-001 1.540100e+000
      vertex  1.044084e+000 4.182081e-001 2.008161e+000
      vertex  6.116516e-001 2.390888e-001 1.540100e+000
    endloop
  endfacet
  facet normal 3.826834e-001 -9.238796e-001 0.000000e+000
    outer loop
      vertex  6.116516e-001 2.390888e-001 1.540100e+000
      vertex  1.044084e+000 4.182081e-001 2.008161e+000
      vertex  6.116516e-001 2.390888e-001 2.010100e+000
    endloop
  endfacet
  facet normal 2.706538e-001 -6.532964e-001 -7.070717e-001
    outer loop
      vertex  2.721272e+000 1.469946e+000 1.210253e+000
      vertex  2.720677e+000 1.467930e+000 1.211888e+000
      vertex  2.380758e+000 9.718768e-001 1.540100e+000
    endloop
  endfacet
  facet normal 2.705981e-001 -6.532815e-001 -7.071067e-001
    outer loop
      vertex  2.380758e+000 9.718768e-001 1.540100e+000
      vertex  1.044084e+000 4.182081e-001 1.540100e+000
      vertex  2.721272e+000 1.469946e+000 1.210253e+000
    endloop
  endfacet
  facet normal 2.705981e-001 -6.532815e-001 -7.071068e-001
    outer loop
      vertex  2.721272e+000 1.469946e+000 1.210253e+000
      vertex  1.044084e+000 4.182081e-001 1.540100e+000
      vertex  1.382659e+000 9.166894e-001 1.209131e+000
    endloop
  endfacet
  facet normal 2.037994e-001 -4.913779e-001 -8.467665e-001
    outer loop
      vertex  2.721272e+000 1.469946e+000 1.210253e+000
      vertex  1.382659e+000 9.166894e-001 1.209131e+000
      vertex  2.937000e+000 1.560518e+000 1.209615e+000
    endloop
  endfacet
  facet normal 2.705912e-001 -6.532650e-001 7.071246e-001
    outer loop
      vertex  2.719888e+000 1.470588e+000 2.339130e+000
      vertex  1.385784e+000 9.179835e-001 2.339130e+000
      vertex  2.717919e+000 1.463904e+000 2.333709e+000
    endloop
  endfacet
  facet normal 2.705979e-001 -6.532814e-001 7.071069e-001
    outer loop
      vertex  2.717919e+000 1.463904e+000 2.333709e+000
      vertex  1.385784e+000 9.179835e-001 2.339130e+000
      vertex  1.046091e+000 4.239934e-001 2.012738e+000
    endloop
  endfacet
  facet normal 2.705980e-001 -6.532815e-001 7.071068e-001
    outer loop
      vertex  2.717919e+000 1.463904e+000 2.333709e+000
      vertex  1.046091e+000 4.239934e-001 2.012738e+000
      vertex  2.380758e+000 9.718768e-001 2.008161e+000
    endloop
  endfacet
  facet normal 2.705940e-001 -6.532717e-001 7.071174e-001
    outer loop
      vertex  2.380758e+000 9.718768e-001 2.008161e+000
      vertex  1.046091e+000 4.239934e-001 2.012738e+000
      vertex  1.045133e+000 4.207411e-001 2.010100e+000
    endloop
  endfacet
  facet normal 2.705921e-001 -6.532670e-001 7.071224e-001
    outer loop
      vertex  2.380758e+000 9.718768e-001 2.008161e+000
      vertex  1.045133e+000 4.207411e-001 2.010100e+000
      vertex  1.044084e+000 4.182081e-001 2.008161e+000
    endloop
  endfacet
  facet normal -5.956638e-001 -3.927970e-001 -7.006391e-001
    outer loop
      vertex  3.199097e+000 1.000008e-004 1.628054e+000
      vertex  2.684640e+000 8.820584e-001 1.570982e+000
      vertex  3.391222e+000 7.968058e-002 1.420100e+000
    endloop
  endfacet
  facet normal -5.956640e-001 -3.927971e-001 -7.006388e-001
    outer loop
      vertex  3.391222e+000 7.968058e-002 1.420100e+000
      vertex  2.684640e+000 8.820584e-001 1.570982e+000
      vertex  2.721525e+000 1.469167e+000 1.210473e+000
    endloop
  endfacet
  facet normal -5.948208e-001 -3.925248e-001 -7.015073e-001
    outer loop
      vertex  3.391222e+000 7.968058e-002 1.420100e+000
      vertex  2.721525e+000 1.469167e+000 1.210473e+000
      vertex  2.721272e+000 1.469946e+000 1.210253e+000
    endloop
  endfacet
  facet normal -5.959241e-001 -3.926044e-001 -7.005256e-001
    outer loop
      vertex  2.721272e+000 1.469946e+000 1.210253e+000
      vertex  2.721525e+000 1.469167e+000 1.210473e+000
      vertex  2.720677e+000 1.467930e+000 1.211888e+000
    endloop
  endfacet
  facet normal -5.956638e-001 -3.927971e-001 7.006391e-001
    outer loop
      vertex  2.721525e+000 1.469167e+000 2.339726e+000
      vertex  2.684640e+000 8.820584e-001 1.979218e+000
      vertex  3.199097e+000 1.000008e-004 1.922146e+000
    endloop
  endfacet
  facet normal -5.956634e-001 -3.927970e-001 7.006395e-001
    outer loop
      vertex  3.199097e+000 1.000008e-004 1.922146e+000
      vertex  3.391222e+000 7.968058e-002 2.130100e+000
      vertex  2.721525e+000 1.469167e+000 2.339726e+000
    endloop
  endfacet
  facet normal -5.950596e-001 -3.926001e-001 7.012625e-001
    outer loop
      vertex  2.721525e+000 1.469167e+000 2.339726e+000
      vertex  3.391222e+000 7.968058e-002 2.130100e+000
      vertex  2.720783e+000 1.470959e+000 2.340100e+000
    endloop
  endfacet
  facet normal -5.957164e-001 -3.927394e-001 7.006266e-001
    outer loop
      vertex  2.721525e+000 1.469167e+000 2.339726e+000
      vertex  2.720783e+000 1.470959e+000 2.340100e+000
      vertex  2.717919e+000 1.463904e+000 2.333709e+000
    endloop
  endfacet
  facet normal -5.957481e-001 -3.927146e-001 7.006136e-001
    outer loop
      vertex  2.717919e+000 1.463904e+000 2.333709e+000
      vertex  2.720783e+000 1.470959e+000 2.340100e+000
      vertex  2.719888e+000 1.470588e+000 2.339130e+000
    endloop
  endfacet
  facet normal -2.706089e-001 6.533074e-001 -7.070788e-001
    outer loop
      vertex  2.757451e+000 1.993987e+000 1.210253e+000
      vertex  2.757880e+000 1.992950e+000 1.209131e+000
      vertex  2.541293e+000 1.904452e+000 1.210253e+000
    endloop
  endfacet
  facet normal -2.706133e-001 6.533183e-001 -7.070669e-001
    outer loop
      vertex  2.541293e+000 1.904452e+000 1.210253e+000
      vertex  2.757880e+000 1.992950e+000 1.209131e+000
      vertex  1.206490e+000 1.350343e+000 1.209131e+000
    endloop
  endfacet
  facet normal -2.705847e-001 6.532495e-001 -7.071413e-001
    outer loop
      vertex  2.541293e+000 1.904452e+000 1.210253e+000
      vertex  1.206490e+000 1.350343e+000 1.209131e+000
      vertex  2.539113e+000 1.905640e+000 1.212185e+000
    endloop
  endfacet
  facet normal -2.705980e-001 6.532814e-001 -7.071069e-001
    outer loop
      vertex  2.539113e+000 1.905640e+000 1.212185e+000
      vertex  1.206490e+000 1.350343e+000 1.209131e+000
      vertex  6.184518e-001 1.458486e+000 1.534073e+000
    endloop
  endfacet
  facet normal -2.705980e-001 6.532816e-001 -7.071066e-001
    outer loop
      vertex  2.539113e+000 1.905640e+000 1.212185e+000
      vertex  6.184518e-001 1.458486e+000 1.534073e+000
      vertex  1.945576e+000 2.014722e+000 1.540100e+000
    endloop
  endfacet
  facet normal -2.706005e-001 6.532875e-001 -7.071002e-001
    outer loop
      vertex  1.945576e+000 2.014722e+000 1.540100e+000
      vertex  6.184518e-001 1.458486e+000 1.534073e+000
      vertex  6.116516e-001 1.462192e+000 1.540100e+000
    endloop
  endfacet
  facet normal -2.705901e-001 6.532624e-001 7.071274e-001
    outer loop
      vertex  1.945576e+000 2.014722e+000 2.008161e+000
      vertex  6.116516e-001 1.462192e+000 2.008161e+000
      vertex  6.141998e-001 1.461140e+000 2.010108e+000
    endloop
  endfacet
  facet normal -2.705980e-001 6.532815e-001 7.071069e-001
    outer loop
      vertex  1.945576e+000 2.014722e+000 2.008161e+000
      vertex  6.141998e-001 1.461140e+000 2.010108e+000
      vertex  2.539266e+000 1.903839e+000 2.337799e+000
    endloop
  endfacet
  facet normal -2.705981e-001 6.532814e-001 7.071069e-001
    outer loop
      vertex  2.539266e+000 1.903839e+000 2.337799e+000
      vertex  6.141998e-001 1.461140e+000 2.010108e+000
      vertex  1.209620e+000 1.351640e+000 2.339130e+000
    endloop
  endfacet
  facet normal -2.705895e-001 6.532609e-001 7.071291e-001
    outer loop
      vertex  2.539266e+000 1.903839e+000 2.337799e+000
      vertex  1.209620e+000 1.351640e+000 2.339130e+000
      vertex  2.540769e+000 1.903020e+000 2.339130e+000
    endloop
  endfacet
  facet normal -6.989837e-001 -1.432117e-001 7.006512e-001
    outer loop
      vertex  2.541664e+000 1.903391e+000 2.340100e+000
      vertex  2.539266e+000 1.903839e+000 2.337799e+000
      vertex  2.540769e+000 1.903020e+000 2.339130e+000
    endloop
  endfacet
  facet normal -0.000000e+000 0.000000e+000 -1.000000e+000
    outer loop
      vertex  1.207481e+000 1.350441e+000 1.209131e+000
      vertex  1.206490e+000 1.350343e+000 1.209131e+000
      vertex  2.757880e+000 1.992950e+000 1.209131e+000
    endloop
  endfacet
  facet normal 0.000000e+000 0.000000e+000 -1.000000e+000
    outer loop
      vertex  1.207481e+000 1.350441e+000 1.209131e+000
      vertex  2.757880e+000 1.992950e+000 1.209131e+000
      vertex  1.383428e+000 9.173234e-001 1.209131e+000
    endloop
  endfacet
  facet normal 6.263133e-004 -7.592069e-004 -9.999995e-001
    outer loop
      vertex  1.382659e+000 9.166894e-001 1.209131e+000
      vertex  1.383428e+000 9.173234e-001 1.209131e+000
      vertex  2.937000e+000 1.560518e+000 1.209615e+000
    endloop
  endfacet
  facet normal 6.624474e-004 -8.464853e-004 -9.999995e-001
    outer loop
      vertex  2.937000e+000 1.560518e+000 1.209615e+000
      vertex  1.383428e+000 9.173234e-001 1.209131e+000
      vertex  2.757880e+000 1.992950e+000 1.209131e+000
    endloop
  endfacet
  facet normal -1.517170e-003 -1.749310e-003 -9.999973e-001
    outer loop
      vertex  2.937000e+000 1.560518e+000 1.209615e+000
      vertex  2.757880e+000 1.992950e+000 1.209131e+000
      vertex  3.153216e+000 1.650078e+000 1.209131e+000
    endloop
  endfacet
  facet normal 0.000000e+000 0.000000e+000 -1.000000e+000
    outer loop
      vertex  3.153216e+000 1.650078e+000 1.209131e+000
      vertex  2.757880e+000 1.992950e+000 1.209131e+000
      vertex  2.974097e+000 2.082510e+000 1.209131e+000
    endloop
  endfacet
  facet normal 9.154175e-001 -3.791648e-001 1.350739e-001
    outer loop
      vertex  1.044084e+000 4.182081e-001 2.010100e+000
      vertex  1.045133e+000 4.207411e-001 2.010100e+000
      vertex  1.046091e+000 4.239934e-001 2.012738e+000
    endloop
  endfacet
  facet normal 3.776647e-001 9.158434e-001 1.363824e-001
    outer loop
      vertex  6.141998e-001 1.461140e+000 2.010108e+000
      vertex  6.116516e-001 1.462192e+000 2.010100e+000
      vertex  9.888585e-001 1.227847e+000 2.539239e+000
    endloop
  endfacet
  facet normal 3.791742e-001 9.154077e-001 1.351132e-001
    outer loop
      vertex  9.888585e-001 1.227847e+000 2.539239e+000
      vertex  6.116516e-001 1.462192e+000 2.010100e+000
      vertex  6.116516e-001 1.234890e+000 3.550100e+000
    endloop
  endfacet
  facet normal 3.791741e-001 9.154077e-001 1.351132e-001
    outer loop
      vertex  9.888585e-001 1.227847e+000 2.539239e+000
      vertex  6.116516e-001 1.234890e+000 3.550100e+000
      vertex  8.833568e-001 1.122346e+000 3.550100e+000
    endloop
  endfacet
  facet normal 9.154077e-001 3.791743e-001 1.351132e-001
    outer loop
      vertex  8.833568e-001 1.122346e+000 3.550100e+000
      vertex  9.959008e-001 8.506404e-001 3.550100e+000
      vertex  9.888585e-001 1.227847e+000 2.539239e+000
    endloop
  endfacet
  facet normal 9.154077e-001 3.791744e-001 1.351132e-001
    outer loop
      vertex  9.888585e-001 1.227847e+000 2.539239e+000
      vertex  9.959008e-001 8.506404e-001 3.550100e+000
      vertex  1.145447e+000 8.506404e-001 2.536905e+000
    endloop
  endfacet
  facet normal 9.154077e-001 -3.791743e-001 1.351132e-001
    outer loop
      vertex  9.959008e-001 8.506404e-001 3.550100e+000
      vertex  8.833568e-001 5.789351e-001 3.550100e+000
      vertex  1.145447e+000 8.506404e-001 2.536905e+000
    endloop
  endfacet
  facet normal 9.154077e-001 -3.791744e-001 1.351132e-001
    outer loop
      vertex  1.145447e+000 8.506404e-001 2.536905e+000
      vertex  8.833568e-001 5.789351e-001 3.550100e+000
      vertex  1.044084e+000 4.182081e-001 2.010100e+000
    endloop
  endfacet
  facet normal 9.238843e-001 -3.826718e-001 0.000000e+000
    outer loop
      vertex  1.045133e+000 4.207411e-001 2.010100e+000
      vertex  1.044084e+000 4.182081e-001 2.010100e+000
      vertex  1.044084e+000 4.182081e-001 2.008161e+000
    endloop
  endfacet
  facet normal 3.816120e-001 9.243227e-001 -0.000000e+000
    outer loop
      vertex  6.116516e-001 1.462192e+000 2.008161e+000
      vertex  6.116516e-001 1.462192e+000 2.010100e+000
      vertex  6.141998e-001 1.461140e+000 2.010108e+000
    endloop
  endfacet
  facet normal 9.154077e-001 -3.791744e-001 -1.351132e-001
    outer loop
      vertex  1.044084e+000 4.182081e-001 1.540100e+000
      vertex  8.833568e-001 5.789351e-001 1.000000e-004
      vertex  1.145447e+000 8.506404e-001 1.013295e+000
    endloop
  endfacet
  facet normal 9.154077e-001 -3.791743e-001 -1.351132e-001
    outer loop
      vertex  1.145447e+000 8.506404e-001 1.013295e+000
      vertex  8.833568e-001 5.789351e-001 1.000000e-004
      vertex  9.959008e-001 8.506404e-001 1.000000e-004
    endloop
  endfacet
  facet normal 9.154077e-001 3.791744e-001 -1.351132e-001
    outer loop
      vertex  1.145447e+000 8.506404e-001 1.013295e+000
      vertex  9.959008e-001 8.506404e-001 1.000000e-004
      vertex  9.888585e-001 1.227847e+000 1.010961e+000
    endloop
  endfacet
  facet normal 9.154077e-001 3.791743e-001 -1.351132e-001
    outer loop
      vertex  9.888585e-001 1.227847e+000 1.010961e+000
      vertex  9.959008e-001 8.506404e-001 1.000000e-004
      vertex  8.833568e-001 1.122346e+000 1.000000e-004
    endloop
  endfacet
  facet normal 3.791744e-001 9.154077e-001 -1.351132e-001
    outer loop
      vertex  9.888585e-001 1.227847e+000 1.010961e+000
      vertex  8.833568e-001 1.122346e+000 1.000000e-004
      vertex  6.184518e-001 1.458486e+000 1.534073e+000
    endloop
  endfacet
  facet normal 3.791741e-001 9.154078e-001 -1.351133e-001
    outer loop
      vertex  6.184518e-001 1.458486e+000 1.534073e+000
      vertex  8.833568e-001 1.122346e+000 1.000000e-004
      vertex  6.116516e-001 1.234890e+000 1.000000e-004
    endloop
  endfacet
  facet normal 3.791727e-001 9.154084e-001 -1.351133e-001
    outer loop
      vertex  6.184518e-001 1.458486e+000 1.534073e+000
      vertex  6.116516e-001 1.234890e+000 1.000000e-004
      vertex  6.116516e-001 1.462192e+000 1.540100e+000
    endloop
  endfacet
  facet normal 0.000000e+000 0.000000e+000 1.000000e+000
    outer loop
      vertex  6.116516e-001 1.234890e+000 3.550100e+000
      vertex  3.399463e-001 1.122346e+000 3.550100e+000
      vertex  2.274023e-001 8.506404e-001 3.550100e+000
    endloop
  endfacet
  facet normal 0.000000e+000 0.000000e+000 1.000000e+000
    outer loop
      vertex  9.959008e-001 8.506404e-001 3.550100e+000
      vertex  8.833568e-001 1.122346e+000 3.550100e+000
      vertex  8.833568e-001 5.789351e-001 3.550100e+000
    endloop
  endfacet
  facet normal 0.000000e+000 -0.000000e+000 1.000000e+000
    outer loop
      vertex  8.833568e-001 5.789351e-001 3.550100e+000
      vertex  8.833568e-001 1.122346e+000 3.550100e+000
      vertex  6.116516e-001 1.234890e+000 3.550100e+000
    endloop
  endfacet
  facet normal 0.000000e+000 0.000000e+000 1.000000e+000
    outer loop
      vertex  8.833568e-001 5.789351e-001 3.550100e+000
      vertex  6.116516e-001 1.234890e+000 3.550100e+000
      vertex  6.116516e-001 4.663912e-001 3.550100e+000
    endloop
  endfacet
  facet normal 0.000000e+000 -0.000000e+000 1.000000e+000
    outer loop
      vertex  6.116516e-001 4.663912e-001 3.550100e+000
      vertex  6.116516e-001 1.234890e+000 3.550100e+000
      vertex  2.274023e-001 8.506404e-001 3.550100e+000
    endloop
  endfacet
  facet normal 0.000000e+000 0.000000e+000 1.000000e+000
    outer loop
      vertex  6.116516e-001 4.663912e-001 3.550100e+000
      vertex  2.274023e-001 8.506404e-001 3.550100e+000
      vertex  3.399463e-001 5.789351e-001 3.550100e+000
    endloop
  endfacet
  facet normal -9.154077e-001 -3.791742e-001 1.351132e-001
    outer loop
      vertex  1.792193e-001 4.182081e-001 2.010100e+000
      vertex  3.399463e-001 5.789351e-001 3.550100e+000
      vertex  1.000008e-004 8.506404e-001 2.010100e+000
    endloop
  endfacet
  facet normal -9.154077e-001 -3.791743e-001 1.351132e-001
    outer loop
      vertex  1.000008e-004 8.506404e-001 2.010100e+000
      vertex  3.399463e-001 5.789351e-001 3.550100e+000
      vertex  2.274023e-001 8.506404e-001 3.550100e+000
    endloop
  endfacet
  facet normal -3.791742e-001 -9.154077e-001 1.351132e-001
    outer loop
      vertex  6.116516e-001 2.390888e-001 2.010100e+000
      vertex  6.116516e-001 4.663912e-001 3.550100e+000
      vertex  1.792193e-001 4.182081e-001 2.010100e+000
    endloop
  endfacet
  facet normal -3.791742e-001 -9.154078e-001 1.351132e-001
    outer loop
      vertex  1.792193e-001 4.182081e-001 2.010100e+000
      vertex  6.116516e-001 4.663912e-001 3.550100e+000
      vertex  3.399463e-001 5.789351e-001 3.550100e+000
    endloop
  endfacet
  facet normal -9.154077e-001 3.791743e-001 1.351132e-001
    outer loop
      vertex  1.000008e-004 8.506404e-001 2.010100e+000
      vertex  2.274023e-001 8.506404e-001 3.550100e+000
      vertex  1.792193e-001 1.283073e+000 2.010100e+000
    endloop
  endfacet
  facet normal -9.154078e-001 3.791742e-001 1.351132e-001
    outer loop
      vertex  1.792193e-001 1.283073e+000 2.010100e+000
      vertex  2.274023e-001 8.506404e-001 3.550100e+000
      vertex  3.399463e-001 1.122346e+000 3.550100e+000
    endloop
  endfacet
  facet normal -3.791746e-001 9.154077e-001 1.351131e-001
    outer loop
      vertex  1.792193e-001 1.283073e+000 2.010100e+000
      vertex  3.399463e-001 1.122346e+000 3.550100e+000
      vertex  6.116516e-001 1.462192e+000 2.010100e+000
    endloop
  endfacet
  facet normal -3.791741e-001 9.154078e-001 1.351133e-001
    outer loop
      vertex  6.116516e-001 1.462192e+000 2.010100e+000
      vertex  3.399463e-001 1.122346e+000 3.550100e+000
      vertex  6.116516e-001 1.234890e+000 3.550100e+000
    endloop
  endfacet
  facet normal 3.791743e-001 -9.154077e-001 1.351132e-001
    outer loop
      vertex  1.044084e+000 4.182081e-001 2.010100e+000
      vertex  8.833568e-001 5.789351e-001 3.550100e+000
      vertex  6.116516e-001 2.390888e-001 2.010100e+000
    endloop
  endfacet
  facet normal 3.791742e-001 -9.154077e-001 1.351132e-001
    outer loop
      vertex  6.116516e-001 2.390888e-001 2.010100e+000
      vertex  8.833568e-001 5.789351e-001 3.550100e+000
      vertex  6.116516e-001 4.663912e-001 3.550100e+000
    endloop
  endfacet
  facet normal -9.238796e-001 3.826835e-001 0.000000e+000
    outer loop
      vertex  1.792193e-001 1.283073e+000 2.010100e+000
      vertex  1.792193e-001 1.283073e+000 1.540100e+000
      vertex  1.000008e-004 8.506404e-001 2.010100e+000
    endloop
  endfacet
  facet normal -9.238796e-001 3.826835e-001 0.000000e+000
    outer loop
      vertex  1.000008e-004 8.506404e-001 2.010100e+000
      vertex  1.792193e-001 1.283073e+000 1.540100e+000
      vertex  1.000008e-004 8.506404e-001 1.540100e+000
    endloop
  endfacet
  facet normal -3.826837e-001 9.238794e-001 0.000000e+000
    outer loop
      vertex  1.792193e-001 1.283073e+000 2.010100e+000
      vertex  6.116516e-001 1.462192e+000 2.010100e+000
      vertex  1.792193e-001 1.283073e+000 1.540100e+000
    endloop
  endfacet
  facet normal -3.826859e-001 9.238786e-001 0.000000e+000
    outer loop
      vertex  1.792193e-001 1.283073e+000 1.540100e+000
      vertex  6.116516e-001 1.462192e+000 2.010100e+000
      vertex  6.116516e-001 1.462192e+000 2.008161e+000
    endloop
  endfacet
  facet normal -3.826837e-001 9.238794e-001 0.000000e+000
    outer loop
      vertex  1.792193e-001 1.283073e+000 1.540100e+000
      vertex  6.116516e-001 1.462192e+000 2.008161e+000
      vertex  6.116516e-001 1.462192e+000 1.540100e+000
    endloop
  endfacet
  facet normal -3.826834e-001 9.238796e-001 0.000000e+000
    outer loop
      vertex  6.116516e-001 1.462192e+000 1.540100e+000
      vertex  6.116516e-001 1.462192e+000 2.008161e+000
      vertex  1.945576e+000 2.014722e+000 2.008161e+000
    endloop
  endfacet
  facet normal -3.826834e-001 9.238796e-001 0.000000e+000
    outer loop
      vertex  6.116516e-001 1.462192e+000 1.540100e+000
      vertex  1.945576e+000 2.014722e+000 2.008161e+000
      vertex  1.945576e+000 2.014722e+000 1.540100e+000
    endloop
  endfacet
  facet normal -9.238796e-001 -3.826834e-001 -0.000000e+000
    outer loop
      vertex  1.000008e-004 8.506404e-001 2.010100e+000
      vertex  1.000008e-004 8.506404e-001 1.540100e+000
      vertex  1.792193e-001 4.182081e-001 2.010100e+000
    endloop
  endfacet
  facet normal -9.238796e-001 -3.826834e-001 -0.000000e+000
    outer loop
      vertex  1.792193e-001 4.182081e-001 2.010100e+000
      vertex  1.000008e-004 8.506404e-001 1.540100e+000
      vertex  1.792193e-001 4.182081e-001 1.540100e+000
    endloop
  endfacet
  facet normal -3.826834e-001 -9.238796e-001 -0.000000e+000
    outer loop
      vertex  1.792193e-001 4.182081e-001 2.010100e+000
      vertex  1.792193e-001 4.182081e-001 1.540100e+000
      vertex  6.116516e-001 2.390888e-001 2.010100e+000
    endloop
  endfacet
  facet normal -3.826834e-001 -9.238796e-001 -0.000000e+000
    outer loop
      vertex  6.116516e-001 2.390888e-001 2.010100e+000
      vertex  1.792193e-001 4.182081e-001 1.540100e+000
      vertex  6.116516e-001 2.390888e-001 1.540100e+000
    endloop
  endfacet
  facet normal 0.000000e+000 0.000000e+000 -1.000000e+000
    outer loop
      vertex  9.959008e-001 8.506404e-001 1.000000e-004
      vertex  8.833568e-001 5.789351e-001 1.000000e-004
      vertex  6.116516e-001 4.663912e-001 1.000000e-004
    endloop
  endfacet
  facet normal -0.000000e+000 -0.000000e+000 -1.000000e+000
    outer loop
      vertex  8.833568e-001 1.122346e+000 1.000000e-004
      vertex  9.959008e-001 8.506404e-001 1.000000e-004
      vertex  6.116516e-001 1.234890e+000 1.000000e-004
    endloop
  endfacet
  facet normal 0.000000e+000 0.000000e+000 -1.000000e+000
    outer loop
      vertex  6.116516e-001 1.234890e+000 1.000000e-004
      vertex  9.959008e-001 8.506404e-001 1.000000e-004
      vertex  6.116516e-001 4.663912e-001 1.000000e-004
    endloop
  endfacet
  facet normal 0.000000e+000 -0.000000e+000 -1.000000e+000
    outer loop
      vertex  6.116516e-001 1.234890e+000 1.000000e-004
      vertex  6.116516e-001 4.663912e-001 1.000000e-004
      vertex  3.399463e-001 1.122346e+000 1.000000e-004
    endloop
  endfacet
  facet normal 0.000000e+000 0.000000e+000 -1.000000e+000
    outer loop
      vertex  3.399463e-001 1.122346e+000 1.000000e-004
      vertex  6.116516e-001 4.663912e-001 1.000000e-004
      vertex  3.399463e-001 5.789351e-001 1.000000e-004
    endloop
  endfacet
  facet normal 0.000000e+000 -0.000000e+000 -1.000000e+000
    outer loop
      vertex  3.399463e-001 1.122346e+000 1.000000e-004
      vertex  3.399463e-001 5.789351e-001 1.000000e-004
      vertex  2.274023e-001 8.506404e-001 1.000000e-004
    endloop
  endfacet
  facet normal -9.154077e-001 -3.791742e-001 -1.351132e-001
    outer loop
      vertex  1.000008e-004 8.506404e-001 1.540100e+000
      vertex  2.274023e-001 8.506404e-001 1.000000e-004
      vertex  1.792193e-001 4.182081e-001 1.540100e+000
    endloop
  endfacet
  facet normal -9.154078e-001 -3.791742e-001 -1.351132e-001
    outer loop
      vertex  1.792193e-001 4.182081e-001 1.540100e+000
      vertex  2.274023e-001 8.506404e-001 1.000000e-004
      vertex  3.399463e-001 5.789351e-001 1.000000e-004
    endloop
  endfacet
  facet normal -9.154077e-001 3.791743e-001 -1.351132e-001
    outer loop
      vertex  1.792193e-001 1.283073e+000 1.540100e+000
      vertex  3.399463e-001 1.122346e+000 1.000000e-004
      vertex  1.000008e-004 8.506404e-001 1.540100e+000
    endloop
  endfacet
  facet normal -9.154077e-001 3.791743e-001 -1.351132e-001
    outer loop
      vertex  1.000008e-004 8.506404e-001 1.540100e+000
      vertex  3.399463e-001 1.122346e+000 1.000000e-004
      vertex  2.274023e-001 8.506404e-001 1.000000e-004
    endloop
  endfacet
  facet normal -3.791742e-001 -9.154077e-001 -1.351132e-001
    outer loop
      vertex  1.792193e-001 4.182081e-001 1.540100e+000
      vertex  3.399463e-001 5.789351e-001 1.000000e-004
      vertex  6.116516e-001 2.390888e-001 1.540100e+000
    endloop
  endfacet
  facet normal -3.791742e-001 -9.154078e-001 -1.351132e-001
    outer loop
      vertex  6.116516e-001 2.390888e-001 1.540100e+000
      vertex  3.399463e-001 5.789351e-001 1.000000e-004
      vertex  6.116516e-001 4.663912e-001 1.000000e-004
    endloop
  endfacet
  facet normal 3.791743e-001 -9.154077e-001 -1.351132e-001
    outer loop
      vertex  6.116516e-001 2.390888e-001 1.540100e+000
      vertex  6.116516e-001 4.663912e-001 1.000000e-004
      vertex  1.044084e+000 4.182081e-001 1.540100e+000
    endloop
  endfacet
  facet normal 3.791742e-001 -9.154077e-001 -1.351132e-001
    outer loop
      vertex  1.044084e+000 4.182081e-001 1.540100e+000
      vertex  6.116516e-001 4.663912e-001 1.000000e-004
      vertex  8.833568e-001 5.789351e-001 1.000000e-004
    endloop
  endfacet
  facet normal -3.791746e-001 9.154077e-001 -1.351132e-001
    outer loop
      vertex  6.116516e-001 1.462192e+000 1.540100e+000
      vertex  6.116516e-001 1.234890e+000 1.000000e-004
      vertex  1.792193e-001 1.283073e+000 1.540100e+000
    endloop
  endfacet
  facet normal -3.791741e-001 9.154078e-001 -1.351131e-001
    outer loop
      vertex  1.792193e-001 1.283073e+000 1.540100e+000
      vertex  6.116516e-001 1.234890e+000 1.000000e-004
      vertex  3.399463e-001 1.122346e+000 1.000000e-004
    endloop
  endfacet
  facet normal -3.964861e-004 9.572014e-004 9.999995e-001
    outer loop
      vertex  3.153664e+000 1.650263e+000 2.339615e+000
      vertex  2.974097e+000 2.082510e+000 2.339130e+000
      vertex  2.937000e+000 1.560518e+000 2.339615e+000
    endloop
  endfacet
  facet normal -3.964857e-004 9.572014e-004 9.999995e-001
    outer loop
      vertex  2.937000e+000 1.560518e+000 2.339615e+000
      vertex  2.974097e+000 2.082510e+000 2.339130e+000
      vertex  2.540769e+000 1.903020e+000 2.339130e+000
    endloop
  endfacet
  facet normal -1.906503e-003 -7.896994e-004 9.999979e-001
    outer loop
      vertex  2.937000e+000 1.560518e+000 2.339615e+000
      vertex  2.540769e+000 1.903020e+000 2.339130e+000
      vertex  2.719888e+000 1.470588e+000 2.339130e+000
    endloop
  endfacet
  facet normal 0.000000e+000 0.000000e+000 1.000000e+000
    outer loop
      vertex  2.719888e+000 1.470588e+000 2.339130e+000
      vertex  2.540769e+000 1.903020e+000 2.339130e+000
      vertex  1.209620e+000 1.351640e+000 2.339130e+000
    endloop
  endfacet
  facet normal 0.000000e+000 0.000000e+000 1.000000e+000
    outer loop
      vertex  2.719888e+000 1.470588e+000 2.339130e+000
      vertex  1.209620e+000 1.351640e+000 2.339130e+000
      vertex  1.385784e+000 9.179835e-001 2.339130e+000
    endloop
  endfacet
  facet normal 9.239262e-001 3.825707e-001 0.000000e+000
    outer loop
      vertex  2.757880e+000 1.992950e+000 1.210100e+000
      vertex  2.757880e+000 1.992950e+000 1.209131e+000
      vertex  2.757451e+000 1.993987e+000 1.210253e+000
    endloop
  endfacet
  facet normal 6.532813e-001 2.705981e-001 -7.071069e-001
    outer loop
      vertex  3.458992e+000 1.776734e+000 1.540100e+000
      vertex  3.153216e+000 1.650078e+000 1.209131e+000
      vertex  3.279872e+000 2.209167e+000 1.540100e+000
    endloop
  endfacet
  facet normal 6.532822e-001 2.705975e-001 -7.071064e-001
    outer loop
      vertex  3.279872e+000 2.209167e+000 1.540100e+000
      vertex  3.153216e+000 1.650078e+000 1.209131e+000
      vertex  2.974097e+000 2.082510e+000 1.209131e+000
    endloop
  endfacet
  facet normal 9.238794e-001 3.826836e-001 -0.000000e+000
    outer loop
      vertex  3.458992e+000 1.776734e+000 1.540100e+000
      vertex  3.279872e+000 2.209167e+000 1.540100e+000
      vertex  3.458992e+000 1.776734e+000 2.008646e+000
    endloop
  endfacet
  facet normal 9.238756e-001 3.826931e-001 0.000000e+000
    outer loop
      vertex  3.458992e+000 1.776734e+000 2.008646e+000
      vertex  3.279872e+000 2.209167e+000 1.540100e+000
      vertex  3.279872e+000 2.209167e+000 1.541069e+000
    endloop
  endfacet
  facet normal 9.238795e-001 3.826835e-001 0.000000e+000
    outer loop
      vertex  3.458992e+000 1.776734e+000 2.008646e+000
      vertex  3.279872e+000 2.209167e+000 1.541069e+000
      vertex  3.279872e+000 2.209167e+000 2.008161e+000
    endloop
  endfacet
  facet normal 6.531993e-001 2.721490e-001 7.065874e-001
    outer loop
      vertex  3.153664e+000 1.650263e+000 2.339615e+000
      vertex  3.458992e+000 1.776734e+000 2.008646e+000
      vertex  2.974097e+000 2.082510e+000 2.339130e+000
    endloop
  endfacet
  facet normal 6.530014e-001 2.712743e-001 7.071064e-001
    outer loop
      vertex  2.974097e+000 2.082510e+000 2.339130e+000
      vertex  3.458992e+000 1.776734e+000 2.008646e+000
      vertex  3.279872e+000 2.209167e+000 2.008161e+000
    endloop
  endfacet
  facet normal -3.826834e-001 9.238796e-001 0.000000e+000
    outer loop
      vertex  3.279872e+000 2.209167e+000 1.541069e+000
      vertex  3.279872e+000 2.209167e+000 1.540100e+000
      vertex  2.974097e+000 2.082510e+000 1.210100e+000
    endloop
  endfacet
  facet normal -3.826834e-001 9.238796e-001 0.000000e+000
    outer loop
      vertex  2.974097e+000 2.082510e+000 1.210100e+000
      vertex  3.279872e+000 2.209167e+000 1.540100e+000
      vertex  2.974097e+000 2.082510e+000 1.209131e+000
    endloop
  endfacet
  facet normal -3.826836e-001 9.238794e-001 0.000000e+000
    outer loop
      vertex  2.974097e+000 2.082510e+000 1.210100e+000
      vertex  2.974097e+000 2.082510e+000 1.209131e+000
      vertex  2.757880e+000 1.992950e+000 1.210100e+000
    endloop
  endfacet
  facet normal -3.826836e-001 9.238794e-001 0.000000e+000
    outer loop
      vertex  2.757880e+000 1.992950e+000 1.210100e+000
      vertex  2.974097e+000 2.082510e+000 1.209131e+000
      vertex  2.757880e+000 1.992950e+000 1.209131e+000
    endloop
  endfacet
  facet normal -8.637869e-001 -5.038573e-001 0.000000e+000
    outer loop
      vertex  3.199097e+000 1.000008e-004 1.628054e+000
      vertex  3.199097e+000 1.000008e-004 1.922146e+000
      vertex  2.684640e+000 8.820584e-001 1.570982e+000
    endloop
  endfacet
  facet normal -8.637869e-001 -5.038573e-001 0.000000e+000
    outer loop
      vertex  2.684640e+000 8.820584e-001 1.570982e+000
      vertex  3.199097e+000 1.000008e-004 1.922146e+000
      vertex  2.684640e+000 8.820584e-001 1.979218e+000
    endloop
  endfacet
  facet normal -3.826829e-001 9.238797e-001 -4.915899e-005
    outer loop
      vertex  2.937000e+000 1.560518e+000 2.339615e+000
      vertex  2.719888e+000 1.470588e+000 2.339130e+000
      vertex  2.720783e+000 1.470959e+000 2.340100e+000
    endloop
  endfacet
  facet normal 4.993635e-002 -1.259192e-001 -9.907829e-001
    outer loop
      vertex  3.153216e+000 1.650078e+000 1.209131e+000
      vertex  3.662927e+000 1.922246e-001 1.420100e+000
      vertex  2.937000e+000 1.560518e+000 1.209615e+000
    endloop
  endfacet
  facet normal 5.175880e-002 -1.249567e-001 -9.908112e-001
    outer loop
      vertex  2.937000e+000 1.560518e+000 1.209615e+000
      vertex  3.662927e+000 1.922246e-001 1.420100e+000
      vertex  3.391222e+000 7.968058e-002 1.420100e+000
    endloop
  endfacet
  facet normal 4.978918e-002 -1.255643e-001 -9.908354e-001
    outer loop
      vertex  2.937000e+000 1.560518e+000 1.209615e+000
      vertex  3.391222e+000 7.968058e-002 1.420100e+000
      vertex  2.721272e+000 1.469946e+000 1.210253e+000
    endloop
  endfacet
  facet normal 3.826835e-001 -9.238795e-001 7.309559e-007
    outer loop
      vertex  3.199097e+000 1.000008e-004 1.628054e+000
      vertex  3.391222e+000 7.968058e-002 1.420100e+000
      vertex  3.662927e+000 1.922246e-001 1.420100e+000
    endloop
  endfacet
  facet normal 3.826835e-001 -9.238795e-001 -7.005003e-007
    outer loop
      vertex  3.391222e+000 7.968058e-002 2.130100e+000
      vertex  3.199097e+000 1.000008e-004 1.922146e+000
      vertex  3.662927e+000 1.922246e-001 2.130100e+000
    endloop
  endfacet
  facet normal 3.826832e-001 -9.238796e-001 0.000000e+000
    outer loop
      vertex  3.662927e+000 1.922246e-001 2.130100e+000
      vertex  3.199097e+000 1.000008e-004 1.922146e+000
      vertex  3.199097e+000 1.000008e-004 1.628054e+000
    endloop
  endfacet
  facet normal 3.826832e-001 -9.238796e-001 5.352300e-008
    outer loop
      vertex  3.662927e+000 1.922246e-001 2.130100e+000
      vertex  3.199097e+000 1.000008e-004 1.628054e+000
      vertex  3.855052e+000 2.718052e-001 1.922146e+000
    endloop
  endfacet
  facet normal 3.826832e-001 -9.238796e-001 -5.046194e-008
    outer loop
      vertex  3.855052e+000 2.718052e-001 1.922146e+000
      vertex  3.199097e+000 1.000008e-004 1.628054e+000
      vertex  3.662927e+000 1.922246e-001 1.420100e+000
    endloop
  endfacet
  facet normal 3.826831e-001 -9.238797e-001 0.000000e+000
    outer loop
      vertex  3.855052e+000 2.718052e-001 1.922146e+000
      vertex  3.662927e+000 1.922246e-001 1.420100e+000
      vertex  3.855052e+000 2.718052e-001 1.628054e+000
    endloop
  endfacet
  facet normal 6.990744e-001 1.430333e-001 -7.005973e-001
    outer loop
      vertex  3.458992e+000 1.776734e+000 1.540100e+000
      vertex  3.855052e+000 2.718052e-001 1.628054e+000
      vertex  3.153216e+000 1.650078e+000 1.209131e+000
    endloop
  endfacet
  facet normal 6.990742e-001 1.430331e-001 -7.005975e-001
    outer loop
      vertex  3.153216e+000 1.650078e+000 1.209131e+000
      vertex  3.855052e+000 2.718052e-001 1.628054e+000
      vertex  3.662927e+000 1.922246e-001 1.420100e+000
    endloop
  endfacet
  facet normal 9.670705e-001 2.545089e-001 0.000000e+000
    outer loop
      vertex  3.458992e+000 1.776734e+000 2.008646e+000
      vertex  3.855052e+000 2.718052e-001 1.922146e+000
      vertex  3.458992e+000 1.776734e+000 1.540100e+000
    endloop
  endfacet
  facet normal 9.670705e-001 2.545089e-001 0.000000e+000
    outer loop
      vertex  3.458992e+000 1.776734e+000 1.540100e+000
      vertex  3.855052e+000 2.718052e-001 1.922146e+000
      vertex  3.855052e+000 2.718052e-001 1.628054e+000
    endloop
  endfacet
  facet normal 5.152481e-002 -1.243919e-001 9.908944e-001
    outer loop
      vertex  3.662927e+000 1.922246e-001 2.130100e+000
      vertex  3.153664e+000 1.650263e+000 2.339615e+000
      vertex  3.391222e+000 7.968058e-002 2.130100e+000
    endloop
  endfacet
  facet normal 5.152481e-002 -1.243919e-001 9.908946e-001
    outer loop
      vertex  3.391222e+000 7.968058e-002 2.130100e+000
      vertex  3.153664e+000 1.650263e+000 2.339615e+000
      vertex  2.937000e+000 1.560518e+000 2.339615e+000
    endloop
  endfacet
  facet normal 5.349315e-002 -1.237841e-001 9.908663e-001
    outer loop
      vertex  3.391222e+000 7.968058e-002 2.130100e+000
      vertex  2.937000e+000 1.560518e+000 2.339615e+000
      vertex  2.720783e+000 1.470959e+000 2.340100e+000
    endloop
  endfacet
  facet normal 6.994103e-001 1.436834e-001 7.001287e-001
    outer loop
      vertex  3.153664e+000 1.650263e+000 2.339615e+000
      vertex  3.662927e+000 1.922246e-001 2.130100e+000
      vertex  3.458992e+000 1.776734e+000 2.008646e+000
    endloop
  endfacet
  facet normal 6.988832e-001 1.436563e-001 7.006605e-001
    outer loop
      vertex  3.458992e+000 1.776734e+000 2.008646e+000
      vertex  3.662927e+000 1.922246e-001 2.130100e+000
      vertex  3.855052e+000 2.718052e-001 1.922146e+000
    endloop
  endfacet
  facet normal -9.671133e-001 -2.543461e-001 -0.000000e+000
    outer loop
      vertex  1.840571e+000 3.279872e+000 1.922146e+000
      vertex  1.840571e+000 3.279872e+000 1.628054e+000
      vertex  2.100202e+000 2.292662e+000 1.979274e+000
    endloop
  endfacet
  facet normal -9.671133e-001 -2.543461e-001 -0.000000e+000
    outer loop
      vertex  2.100202e+000 2.292662e+000 1.979274e+000
      vertex  1.840571e+000 3.279872e+000 1.628054e+000
      vertex  2.100202e+000 2.292662e+000 1.570925e+000
    endloop
  endfacet
  facet normal -6.989971e-001 -1.432887e-001 -7.006221e-001
    outer loop
      vertex  2.100202e+000 2.292662e+000 1.570925e+000
      vertex  1.840571e+000 3.279872e+000 1.628054e+000
      vertex  2.539113e+000 1.905640e+000 1.212185e+000
    endloop
  endfacet
  facet normal -6.989965e-001 -1.432883e-001 -7.006228e-001
    outer loop
      vertex  2.539113e+000 1.905640e+000 1.212185e+000
      vertex  1.840571e+000 3.279872e+000 1.628054e+000
      vertex  2.032695e+000 3.359453e+000 1.420100e+000
    endloop
  endfacet
  facet normal -6.989258e-001 -1.432525e-001 -7.007007e-001
    outer loop
      vertex  2.539113e+000 1.905640e+000 1.212185e+000
      vertex  2.032695e+000 3.359453e+000 1.420100e+000
      vertex  2.541293e+000 1.904452e+000 1.210253e+000
    endloop
  endfacet
  facet normal -6.989962e-001 -1.432882e-001 7.006231e-001
    outer loop
      vertex  2.032695e+000 3.359453e+000 2.130100e+000
      vertex  1.840571e+000 3.279872e+000 1.922146e+000
      vertex  2.541664e+000 1.903391e+000 2.340100e+000
    endloop
  endfacet
  facet normal -6.989967e-001 -1.432887e-001 7.006226e-001
    outer loop
      vertex  2.541664e+000 1.903391e+000 2.340100e+000
      vertex  1.840571e+000 3.279872e+000 1.922146e+000
      vertex  2.100202e+000 2.292662e+000 1.979274e+000
    endloop
  endfacet
  facet normal 3.826834e-001 -9.238795e-001 0.000000e+000
    outer loop
      vertex  3.279872e+000 2.209167e+000 2.008161e+000
      vertex  3.279872e+000 2.209167e+000 2.009130e+000
      vertex  2.974097e+000 2.082510e+000 2.339130e+000
    endloop
  endfacet
  facet normal 3.826834e-001 -9.238796e-001 0.000000e+000
    outer loop
      vertex  2.974097e+000 2.082510e+000 2.339130e+000
      vertex  3.279872e+000 2.209167e+000 2.009130e+000
      vertex  2.974097e+000 2.082510e+000 2.340100e+000
    endloop
  endfacet
  facet normal 3.826833e-001 -9.238796e-001 0.000000e+000
    outer loop
      vertex  2.974097e+000 2.082510e+000 2.339130e+000
      vertex  2.974097e+000 2.082510e+000 2.340100e+000
      vertex  2.540769e+000 1.903020e+000 2.339130e+000
    endloop
  endfacet
  facet normal 3.826836e-001 -9.238794e-001 -1.593277e-004
    outer loop
      vertex  2.540769e+000 1.903020e+000 2.339130e+000
      vertex  2.974097e+000 2.082510e+000 2.340100e+000
      vertex  2.541664e+000 1.903391e+000 2.340100e+000
    endloop
  endfacet
  facet normal -5.170558e-002 1.248283e-001 -9.908302e-001
    outer loop
      vertex  2.541293e+000 1.904452e+000 1.210253e+000
      vertex  2.032695e+000 3.359453e+000 1.420100e+000
      vertex  2.757451e+000 1.993987e+000 1.210253e+000
    endloop
  endfacet
  facet normal -5.170562e-002 1.248282e-001 -9.908301e-001
    outer loop
      vertex  2.757451e+000 1.993987e+000 1.210253e+000
      vertex  2.032695e+000 3.359453e+000 1.420100e+000
      vertex  2.304400e+000 3.471997e+000 1.420100e+000
    endloop
  endfacet
  facet normal -5.181400e-002 1.247948e-001 -9.908288e-001
    outer loop
      vertex  2.757451e+000 1.993987e+000 1.210253e+000
      vertex  2.304400e+000 3.471997e+000 1.420100e+000
      vertex  2.757880e+000 1.992950e+000 1.210100e+000
    endloop
  endfacet
  facet normal -5.170559e-002 1.248283e-001 -9.908302e-001
    outer loop
      vertex  2.757880e+000 1.992950e+000 1.210100e+000
      vertex  2.304400e+000 3.471997e+000 1.420100e+000
      vertex  2.974097e+000 2.082510e+000 1.210100e+000
    endloop
  endfacet
  facet normal -3.826837e-001 9.238794e-001 1.035521e-006
    outer loop
      vertex  2.496525e+000 3.551578e+000 1.628054e+000
      vertex  2.304400e+000 3.471997e+000 1.420100e+000
      vertex  2.032695e+000 3.359453e+000 1.420100e+000
    endloop
  endfacet
  facet normal -3.826837e-001 9.238794e-001 -1.096435e-006
    outer loop
      vertex  2.304400e+000 3.471997e+000 2.130100e+000
      vertex  2.496525e+000 3.551578e+000 1.922146e+000
      vertex  2.032695e+000 3.359453e+000 2.130100e+000
    endloop
  endfacet
  facet normal -3.826833e-001 9.238796e-001 0.000000e+000
    outer loop
      vertex  2.032695e+000 3.359453e+000 2.130100e+000
      vertex  2.496525e+000 3.551578e+000 1.922146e+000
      vertex  2.496525e+000 3.551578e+000 1.628054e+000
    endloop
  endfacet
  facet normal -3.826832e-001 9.238796e-001 8.920505e-008
    outer loop
      vertex  2.032695e+000 3.359453e+000 2.130100e+000
      vertex  2.496525e+000 3.551578e+000 1.628054e+000
      vertex  1.840571e+000 3.279872e+000 1.922146e+000
    endloop
  endfacet
  facet normal -3.826833e-001 9.238796e-001 -6.307743e-008
    outer loop
      vertex  1.840571e+000 3.279872e+000 1.922146e+000
      vertex  2.496525e+000 3.551578e+000 1.628054e+000
      vertex  2.032695e+000 3.359453e+000 1.420100e+000
    endloop
  endfacet
  facet normal -3.826831e-001 9.238796e-001 0.000000e+000
    outer loop
      vertex  1.840571e+000 3.279872e+000 1.922146e+000
      vertex  2.032695e+000 3.359453e+000 1.420100e+000
      vertex  1.840571e+000 3.279872e+000 1.628054e+000
    endloop
  endfacet
  facet normal 8.637022e-001 5.040025e-001 0.000000e+000
    outer loop
      vertex  2.496525e+000 3.551578e+000 1.922146e+000
      vertex  3.279872e+000 2.209167e+000 2.009130e+000
      vertex  2.496525e+000 3.551578e+000 1.628054e+000
    endloop
  endfacet
  facet normal 8.637100e-001 5.039891e-001 0.000000e+000
    outer loop
      vertex  2.496525e+000 3.551578e+000 1.628054e+000
      vertex  3.279872e+000 2.209167e+000 2.009130e+000
      vertex  3.279872e+000 2.209167e+000 2.008161e+000
    endloop
  endfacet
  facet normal 8.637022e-001 5.040024e-001 0.000000e+000
    outer loop
      vertex  2.496525e+000 3.551578e+000 1.628054e+000
      vertex  3.279872e+000 2.209167e+000 2.008161e+000
      vertex  3.279872e+000 2.209167e+000 1.541069e+000
    endloop
  endfacet
  facet normal 5.955858e-001 3.929453e-001 -7.006223e-001
    outer loop
      vertex  2.974097e+000 2.082510e+000 1.210100e+000
      vertex  2.304400e+000 3.471997e+000 1.420100e+000
      vertex  3.279872e+000 2.209167e+000 1.541069e+000
    endloop
  endfacet
  facet normal 5.955852e-001 3.929448e-001 -7.006230e-001
    outer loop
      vertex  3.279872e+000 2.209167e+000 1.541069e+000
      vertex  2.304400e+000 3.471997e+000 1.420100e+000
      vertex  2.496525e+000 3.551578e+000 1.628054e+000
    endloop
  endfacet
  facet normal 5.955859e-001 3.929451e-001 7.006223e-001
    outer loop
      vertex  3.279872e+000 2.209167e+000 2.009130e+000
      vertex  2.496525e+000 3.551578e+000 1.922146e+000
      vertex  2.974097e+000 2.082510e+000 2.340100e+000
    endloop
  endfacet
  facet normal 5.955847e-001 3.929450e-001 7.006234e-001
    outer loop
      vertex  2.974097e+000 2.082510e+000 2.340100e+000
      vertex  2.496525e+000 3.551578e+000 1.922146e+000
      vertex  2.304400e+000 3.471997e+000 2.130100e+000
    endloop
  endfacet
  facet normal -5.170562e-002 1.248283e-001 9.908302e-001
    outer loop
      vertex  2.974097e+000 2.082510e+000 2.340100e+000
      vertex  2.304400e+000 3.471997e+000 2.130100e+000
      vertex  2.541664e+000 1.903391e+000 2.340100e+000
    endloop
  endfacet
  facet normal -5.170562e-002 1.248283e-001 9.908302e-001
    outer loop
      vertex  2.541664e+000 1.903391e+000 2.340100e+000
      vertex  2.304400e+000 3.471997e+000 2.130100e+000
      vertex  2.032695e+000 3.359453e+000 2.130100e+000
    endloop
  endfacet
  facet normal -8.706725e-002 8.873173e-001 4.528656e-001
    outer loop
      vertex  9.888585e-001 1.227847e+000 2.539239e+000
      vertex  1.209620e+000 1.351640e+000 2.339130e+000
      vertex  6.141998e-001 1.461140e+000 2.010108e+000
    endloop
  endfacet
  facet normal 5.667705e-001 -6.869479e-001 4.548338e-001
    outer loop
      vertex  1.385784e+000 9.179835e-001 2.339130e+000
      vertex  1.145447e+000 8.506404e-001 2.536905e+000
      vertex  1.044084e+000 4.182081e-001 2.010100e+000
    endloop
  endfacet
  facet normal 5.773764e-001 2.345468e-001 7.820641e-001
    outer loop
      vertex  1.209620e+000 1.351640e+000 2.339130e+000
      vertex  9.888585e-001 1.227847e+000 2.539239e+000
      vertex  1.385784e+000 9.179835e-001 2.339130e+000
    endloop
  endfacet
  facet normal 5.775460e-001 2.349166e-001 7.818279e-001
    outer loop
      vertex  1.385784e+000 9.179835e-001 2.339130e+000
      vertex  9.888585e-001 1.227847e+000 2.539239e+000
      vertex  1.145447e+000 8.506404e-001 2.536905e+000
    endloop
  endfacet
  facet normal 5.038072e-001 2.075855e-001 -8.385025e-001
    outer loop
      vertex  1.385784e+000 9.179835e-001 2.339130e+000
      vertex  1.044084e+000 4.182081e-001 2.010100e+000
      vertex  1.046091e+000 4.239934e-001 2.012738e+000
    endloop
  endfacet
  facet normal 5.667704e-001 -6.869479e-001 -4.548339e-001
    outer loop
      vertex  1.044084e+000 4.182081e-001 1.540100e+000
      vertex  1.145447e+000 8.506404e-001 1.013295e+000
      vertex  1.382659e+000 9.166894e-001 1.209131e+000
    endloop
  endfacet
  facet normal 5.667456e-001 -6.869999e-001 -4.547864e-001
    outer loop
      vertex  1.382659e+000 9.166894e-001 1.209131e+000
      vertex  1.145447e+000 8.506404e-001 1.013295e+000
      vertex  1.383428e+000 9.173234e-001 1.209131e+000
    endloop
  endfacet
  facet normal 5.775457e-001 2.349165e-001 -7.818282e-001
    outer loop
      vertex  1.145447e+000 8.506404e-001 1.013295e+000
      vertex  9.888585e-001 1.227847e+000 1.010961e+000
      vertex  1.383428e+000 9.173234e-001 1.209131e+000
    endloop
  endfacet
  facet normal 5.773751e-001 2.345489e-001 -7.820646e-001
    outer loop
      vertex  1.383428e+000 9.173234e-001 1.209131e+000
      vertex  9.888585e-001 1.227847e+000 1.010961e+000
      vertex  1.207481e+000 1.350441e+000 1.209131e+000
    endloop
  endfacet
  facet normal -8.704552e-002 8.873096e-001 -4.528849e-001
    outer loop
      vertex  1.207481e+000 1.350441e+000 1.209131e+000
      vertex  9.888585e-001 1.227847e+000 1.010961e+000
      vertex  1.206490e+000 1.350343e+000 1.209131e+000
    endloop
  endfacet
  facet normal -8.706727e-002 8.873174e-001 -4.528657e-001
    outer loop
      vertex  1.206490e+000 1.350343e+000 1.209131e+000
      vertex  9.888585e-001 1.227847e+000 1.010961e+000
      vertex  6.184518e-001 1.458486e+000 1.534073e+000
    endloop
  endfacet
  facet normal -4.113757e-001 3.233723e-001 -8.521739e-001
    outer loop
      vertex  2.539113e+000 1.905640e+000 1.212185e+000
      vertex  1.945576e+000 2.014722e+000 1.540100e+000
      vertex  2.100202e+000 2.292662e+000 1.570925e+000
    endloop
  endfacet
  facet normal -1.835338e-001 -9.830133e-001 -1.145496e-004
    outer loop
      vertex  1.945576e+000 2.014722e+000 2.008161e+000
      vertex  2.539266e+000 1.903839e+000 2.337799e+000
      vertex  2.541664e+000 1.903391e+000 2.340100e+000
    endloop
  endfacet
  facet normal -4.148207e-001 3.193300e-001 8.520283e-001
    outer loop
      vertex  2.541664e+000 1.903391e+000 2.340100e+000
      vertex  2.100202e+000 2.292662e+000 1.979274e+000
      vertex  1.945576e+000 2.014722e+000 2.008161e+000
    endloop
  endfacet
  facet normal -8.738701e-001 4.861594e-001 0.000000e+000
    outer loop
      vertex  2.100202e+000 2.292662e+000 1.979274e+000
      vertex  2.100202e+000 2.292662e+000 1.570925e+000
      vertex  1.945576e+000 2.014722e+000 2.008161e+000
    endloop
  endfacet
  facet normal -8.738701e-001 4.861594e-001 0.000000e+000
    outer loop
      vertex  1.945576e+000 2.014722e+000 2.008161e+000
      vertex  2.100202e+000 2.292662e+000 1.570925e+000
      vertex  1.945576e+000 2.014722e+000 1.540100e+000
    endloop
  endfacet
  facet normal -6.752238e-002 -5.191228e-001 8.520283e-001
    outer loop
      vertex  2.378750e+000 9.689468e-001 2.008161e+000
      vertex  2.684621e+000 8.817505e-001 1.979274e+000
      vertex  2.721525e+000 1.469167e+000 2.340100e+000
    endloop
  endfacet
  facet normal -6.222795e-002 -5.195451e-001 -8.521741e-001
    outer loop
      vertex  2.721525e+000 1.469167e+000 1.210100e+000
      vertex  2.684621e+000 8.817505e-001 1.570925e+000
      vertex  2.378750e+000 9.689468e-001 1.540100e+000
    endloop
  endfacet
  facet normal -8.249193e-001 5.652505e-001 0.000000e+000
    outer loop
      vertex  2.378750e+000 9.689468e-001 1.540100e+000
      vertex  2.378750e+000 9.689468e-001 2.008161e+000
      vertex  2.380758e+000 9.718768e-001 2.008161e+000
    endloop
  endfacet
  facet normal -8.249193e-001 5.652505e-001 3.584116e-005
    outer loop
      vertex  2.380758e+000 9.718768e-001 2.008161e+000
      vertex  2.378750e+000 9.689468e-001 2.008161e+000
      vertex  2.717919e+000 1.463904e+000 2.333709e+000
    endloop
  endfacet
  facet normal -8.248904e-001 5.652927e-001 -5.843539e-005
    outer loop
      vertex  2.717919e+000 1.463904e+000 2.333709e+000
      vertex  2.378750e+000 9.689468e-001 2.008161e+000
      vertex  2.721525e+000 1.469167e+000 2.340100e+000
    endloop
  endfacet
  facet normal -8.249232e-001 5.652449e-001 0.000000e+000
    outer loop
      vertex  2.717919e+000 1.463904e+000 2.333709e+000
      vertex  2.721525e+000 1.469167e+000 2.340100e+000
      vertex  2.721525e+000 1.469167e+000 2.339726e+000
    endloop
  endfacet
  facet normal -8.249660e-001 5.651824e-001 0.000000e+000
    outer loop
      vertex  2.721525e+000 1.469167e+000 1.210473e+000
      vertex  2.721525e+000 1.469167e+000 1.210100e+000
      vertex  2.720677e+000 1.467930e+000 1.211888e+000
    endloop
  endfacet
  facet normal -8.248602e-001 5.653368e-001 1.570031e-004
    outer loop
      vertex  2.720677e+000 1.467930e+000 1.211888e+000
      vertex  2.721525e+000 1.469167e+000 1.210100e+000
      vertex  2.378750e+000 9.689468e-001 1.540100e+000
    endloop
  endfacet
  facet normal -8.249192e-001 5.652506e-001 -3.834634e-005
    outer loop
      vertex  2.720677e+000 1.467930e+000 1.211888e+000
      vertex  2.378750e+000 9.689468e-001 1.540100e+000
      vertex  2.380758e+000 9.718768e-001 1.540100e+000
    endloop
  endfacet
  facet normal -8.249193e-001 5.652505e-001 0.000000e+000
    outer loop
      vertex  2.380758e+000 9.718768e-001 1.540100e+000
      vertex  2.378750e+000 9.689468e-001 1.540100e+000
      vertex  2.380758e+000 9.718768e-001 2.008161e+000
    endloop
  endfacet
  facet normal -2.741534e-001 -9.616860e-001 0.000000e+000
    outer loop
      vertex  2.684621e+000 8.817505e-001 1.570925e+000
      vertex  2.684621e+000 8.817505e-001 1.979274e+000
      vertex  2.378750e+000 9.689468e-001 1.540100e+000
    endloop
  endfacet
  facet normal -2.741534e-001 -9.616860e-001 0.000000e+000
    outer loop
      vertex  2.378750e+000 9.689468e-001 1.540100e+000
      vertex  2.684621e+000 8.817505e-001 1.979274e+000
      vertex  2.378750e+000 9.689468e-001 2.008161e+000
    endloop
  endfacet
  facet normal 9.980323e-001 -6.270201e-002 0.000000e+000
    outer loop
      vertex  2.721525e+000 1.469167e+000 2.339726e+000
      vertex  2.721525e+000 1.469167e+000 2.340100e+000
      vertex  2.684640e+000 8.820584e-001 1.979218e+000
    endloop
  endfacet
  facet normal 9.980734e-001 -6.203451e-002 -1.090148e-003
    outer loop
      vertex  2.684640e+000 8.820584e-001 1.979218e+000
      vertex  2.721525e+000 1.469167e+000 2.340100e+000
      vertex  2.684621e+000 8.817505e-001 1.979274e+000
    endloop
  endfacet
  facet normal 9.980863e-001 -6.183689e-002 0.000000e+000
    outer loop
      vertex  2.684640e+000 8.820584e-001 1.979218e+000
      vertex  2.684621e+000 8.817505e-001 1.979274e+000
      vertex  2.684640e+000 8.820584e-001 1.570982e+000
    endloop
  endfacet
  facet normal 9.980863e-001 -6.183691e-002 0.000000e+000
    outer loop
      vertex  2.684640e+000 8.820584e-001 1.570982e+000
      vertex  2.684621e+000 8.817505e-001 1.979274e+000
      vertex  2.684621e+000 8.817505e-001 1.570925e+000
    endloop
  endfacet
  facet normal 9.980733e-001 -6.203531e-002 1.089958e-003
    outer loop
      vertex  2.684640e+000 8.820584e-001 1.570982e+000
      vertex  2.684621e+000 8.817505e-001 1.570925e+000
      vertex  2.721525e+000 1.469167e+000 1.210473e+000
    endloop
  endfacet
  facet normal 9.980323e-001 -6.270155e-002 0.000000e+000
    outer loop
      vertex  2.721525e+000 1.469167e+000 1.210473e+000
      vertex  2.684621e+000 8.817505e-001 1.570925e+000
      vertex  2.721525e+000 1.469167e+000 1.210100e+000
    endloop
  endfacet
endsolid vcg
