solid ascii
 facet normal 0.382683 -0.92388 0
  outer loop
   vertex -2.05675 -2.68545 0.700054
   vertex -2.05675 -2.68545 0.705871
   vertex -3.35405 -3.2228 0.705871
  endloop
 endfacet
 facet normal 0.382684 -0.923879 0
  outer loop
   vertex 1.95327 -1.02444 -0.704129
   vertex 1.95327 -1.02444 0.700054
   vertex -2.05675 -2.68545 -0.704129
  endloop
 endfacet
 facet normal 0.382684 -0.923879 0
  outer loop
   vertex -2.05675 -2.68545 -0.704129
   vertex 1.95327 -1.02444 0.700054
   vertex -2.05675 -2.68545 0.700054
  endloop
 endfacet
 facet normal 0.382683 -0.92388 0
  outer loop
   vertex -2.05675 -2.68545 -0.704129
   vertex -2.05675 -2.68545 0.700054
   vertex -3.35405 -3.2228 -0.704129
  endloop
 endfacet
 facet normal 0.382683 -0.92388 0
  outer loop
   vertex -3.35405 -3.2228 -0.704129
   vertex -2.05675 -2.68545 0.700054
   vertex -3.35405 -3.2228 0.705871
  endloop
 endfacet
 facet normal 0.270688 -0.653306 -0.70705
  outer loop
   vertex 2.97481 0.469767 -1.69367
   vertex 2.97302 0.463719 -1.68877
   vertex 1.95327 -1.02444 -0.704129
  endloop
 endfacet
 facet normal 0.270598 -0.653282 -0.707107
  outer loop
   vertex 1.95327 -1.02444 -0.704129
   vertex -2.05675 -2.68545 -0.704129
   vertex 2.97481 0.469767 -1.69367
  endloop
 endfacet
 facet normal 0.270597 -0.653281 -0.707108
  outer loop
   vertex 2.97481 0.469767 -1.69367
   vertex -2.05675 -2.68545 -0.704129
   vertex -1.04103 -1.19 -1.69704
  endloop
 endfacet
 facet normal 0.203874 -0.491559 -0.846644
  outer loop
   vertex 2.97481 0.469767 -1.69367
   vertex -1.04103 -1.19 -1.69704
   vertex 3.62199 0.741483 -1.69558
  endloop
 endfacet
 facet normal 0.270579 -0.653234 0.707158
  outer loop
   vertex 2.97066 0.471693 1.69296
   vertex -1.03165 -1.18612 1.69296
   vertex 2.96475 0.451641 1.6767
  endloop
 endfacet
 facet normal 0.270598 -0.653281 0.707107
  outer loop
   vertex 2.96475 0.451641 1.6767
   vertex -1.03165 -1.18612 1.69296
   vertex -2.05073 -2.66809 0.713785
  endloop
 endfacet
 facet normal 0.270598 -0.653282 0.707107
  outer loop
   vertex 2.96475 0.451641 1.6767
   vertex -2.05073 -2.66809 0.713785
   vertex 1.95327 -1.02444 0.700054
  endloop
 endfacet
 facet normal 0.270594 -0.653272 0.707117
  outer loop
   vertex 1.95327 -1.02444 0.700054
   vertex -2.05073 -2.66809 0.713785
   vertex -2.05361 -2.67785 0.705871
  endloop
 endfacet
 facet normal 0.270607 -0.653302 0.707085
  outer loop
   vertex 1.95327 -1.02444 0.700054
   vertex -2.05361 -2.67785 0.705871
   vertex -2.05675 -2.68545 0.700054
  endloop
 endfacet
 facet normal -0.595664 -0.392797 -0.70064
  outer loop
   vertex 4.40829 -3.93977 -0.440267
   vertex 2.86491 -1.2939 -0.611483
   vertex 4.98466 -3.70103 -1.06413
  endloop
 endfacet
 facet normal -0.595665 -0.392798 -0.700638
  outer loop
   vertex 4.98466 -3.70103 -1.06413
   vertex 2.86491 -1.2939 -0.611483
   vertex 2.97557 0.46743 -1.69301
  endloop
 endfacet
 facet normal -0.590414 -0.39108 -0.706023
  outer loop
   vertex 4.98466 -3.70103 -1.06413
   vertex 2.97557 0.46743 -1.69301
   vertex 2.97481 0.469767 -1.69367
  endloop
 endfacet
 facet normal -0.597046 -0.391574 -0.700147
  outer loop
   vertex 2.97481 0.469767 -1.69367
   vertex 2.97557 0.46743 -1.69301
   vertex 2.97302 0.463719 -1.68877
  endloop
 endfacet
 facet normal -0.595665 -0.392797 0.700638
  outer loop
   vertex 2.97557 0.46743 1.69475
   vertex 2.86491 -1.2939 0.613225
   vertex 4.40829 -3.93977 0.442009
  endloop
 endfacet
 facet normal -0.595663 -0.392797 0.70064
  outer loop
   vertex 4.40829 -3.93977 0.442009
   vertex 4.98466 -3.70103 1.06587
   vertex 2.97557 0.46743 1.69475
  endloop
 endfacet
 facet normal -0.596439 -0.39305 0.699838
  outer loop
   vertex 2.97557 0.46743 1.69475
   vertex 4.98466 -3.70103 1.06587
   vertex 2.97334 0.472806 1.69587
  endloop
 endfacet
 facet normal -0.595646 -0.392882 0.700607
  outer loop
   vertex 2.97557 0.46743 1.69475
   vertex 2.97334 0.472806 1.69587
   vertex 2.96475 0.451641 1.6767
  endloop
 endfacet
 facet normal -0.596449 -0.392255 0.700275
  outer loop
   vertex 2.96475 0.451641 1.6767
   vertex 2.97334 0.472806 1.69587
   vertex 2.97066 0.471693 1.69296
  endloop
 endfacet
 facet normal -0.270576 0.653233 -0.70716
  outer loop
   vertex 3.08335 2.04189 -1.69367
   vertex 3.08463 2.03878 -1.69704
   vertex 2.43487 1.77328 -1.69367
  endloop
 endfacet
 facet normal -0.270503 0.653052 -0.707355
  outer loop
   vertex 2.43487 1.77328 -1.69367
   vertex 3.08463 2.03878 -1.69704
   vertex -1.56954 0.110958 -1.69704
  endloop
 endfacet
 facet normal -0.270617 0.653325 -0.707059
  outer loop
   vertex 2.43487 1.77328 -1.69367
   vertex -1.56954 0.110958 -1.69704
   vertex 2.42833 1.77685 -1.68787
  endloop
 endfacet
 facet normal -0.270598 0.65328 -0.707109
  outer loop
   vertex 2.42833 1.77685 -1.68787
   vertex -1.56954 0.110958 -1.69704
   vertex -3.33365 0.435387 -0.72221
  endloop
 endfacet
 facet normal -0.270598 0.653281 -0.707107
  outer loop
   vertex 2.42833 1.77685 -1.68787
   vertex -3.33365 0.435387 -0.72221
   vertex 0.647722 2.1041 -0.704129
  endloop
 endfacet
 facet normal -0.270614 0.653318 -0.707067
  outer loop
   vertex 0.647722 2.1041 -0.704129
   vertex -3.33365 0.435387 -0.72221
   vertex -3.35405 0.446505 -0.704129
  endloop
 endfacet
 facet normal -0.270586 0.653252 0.707139
  outer loop
   vertex 0.647722 2.1041 0.700054
   vertex -3.35405 0.446505 0.700054
   vertex -3.34641 0.443349 0.705895
  endloop
 endfacet
 facet normal -0.270598 0.653281 0.707107
  outer loop
   vertex 0.647722 2.1041 0.700054
   vertex -3.34641 0.443349 0.705895
   vertex 2.42879 1.77145 1.68897
  endloop
 endfacet
 facet normal -0.270598 0.653281 0.707108
  outer loop
   vertex 2.42879 1.77145 1.68897
   vertex -3.34641 0.443349 0.705895
   vertex -1.56015 0.114849 1.69296
  endloop
 endfacet
 facet normal -0.270502 0.65305 0.707358
  outer loop
   vertex 2.42879 1.77145 1.68897
   vertex -1.56015 0.114849 1.69296
   vertex 2.4333 1.76899 1.69296
  endloop
 endfacet
 facet normal -0.699045 -0.145028 0.700216
  outer loop
   vertex 2.43599 1.7701 1.69587
   vertex 2.42879 1.77145 1.68897
   vertex 2.4333 1.76899 1.69296
  endloop
 endfacet
 facet normal 0 0 -1
  outer loop
   vertex -1.56656 0.111252 -1.69704
   vertex -1.56954 0.110958 -1.69704
   vertex 3.08463 2.03878 -1.69704
  endloop
 endfacet
 facet normal 0 0 -1
  outer loop
   vertex -1.56656 0.111252 -1.69704
   vertex 3.08463 2.03878 -1.69704
   vertex -1.03872 -1.1881 -1.69704
  endloop
 endfacet
 facet normal 0.00062576 -0.000758983 -1
  outer loop
   vertex -1.04103 -1.19 -1.69704
   vertex -1.03872 -1.1881 -1.69704
   vertex 3.62199 0.741483 -1.69558
  endloop
 endfacet
 facet normal 0.00066147 -0.000845236 -0.999999
  outer loop
   vertex 3.62199 0.741483 -1.69558
   vertex -1.03872 -1.1881 -1.69704
   vertex 3.08463 2.03878 -1.69704
  endloop
 endfacet
 facet normal -0.00151493 -0.00174673 -0.999997
  outer loop
   vertex 3.62199 0.741483 -1.69558
   vertex 3.08463 2.03878 -1.69704
   vertex 4.27064 1.01016 -1.69704
  endloop
 endfacet
 facet normal 0 0 -1
  outer loop
   vertex 4.27064 1.01016 -1.69704
   vertex 3.08463 2.03878 -1.69704
   vertex 3.73329 2.30746 -1.69704
  endloop
 endfacet
 facet normal 0.915441 -0.379136 0.134991
  outer loop
   vertex -2.05675 -2.68545 0.705871
   vertex -2.05361 -2.67785 0.705871
   vertex -2.05073 -2.66809 0.713785
  endloop
 endfacet
 facet normal 0.377668 0.915842 0.13638
  outer loop
   vertex -3.34641 0.443349 0.705895
   vertex -3.35405 0.446505 0.705871
   vertex -2.22243 -0.25653 2.29329
  endloop
 endfacet
 facet normal 0.379176 0.915407 0.135113
  outer loop
   vertex -2.22243 -0.25653 2.29329
   vertex -3.35405 0.446505 0.705871
   vertex -3.35405 -0.235401 5.32587
  endloop
 endfacet
 facet normal 0.379174 0.915408 0.135112
  outer loop
   vertex -2.22243 -0.25653 2.29329
   vertex -3.35405 -0.235401 5.32587
   vertex -2.53894 -0.573033 5.32587
  endloop
 endfacet
 facet normal 0.915408 0.379174 0.135113
  outer loop
   vertex -2.53894 -0.573033 5.32587
   vertex -2.2013 -1.38815 5.32587
   vertex -2.22243 -0.25653 2.29329
  endloop
 endfacet
 facet normal 0.915408 0.379174 0.135113
  outer loop
   vertex -2.22243 -0.25653 2.29329
   vertex -2.2013 -1.38815 5.32587
   vertex -1.75266 -1.38815 2.28629
  endloop
 endfacet
 facet normal 0.915408 -0.379174 0.135113
  outer loop
   vertex -2.2013 -1.38815 5.32587
   vertex -2.53894 -2.20327 5.32587
   vertex -1.75266 -1.38815 2.28629
  endloop
 endfacet
 facet normal 0.915408 -0.379174 0.135113
  outer loop
   vertex -1.75266 -1.38815 2.28629
   vertex -2.53894 -2.20327 5.32587
   vertex -2.05675 -2.68545 0.705871
  endloop
 endfacet
 facet normal 0.923898 -0.382639 0
  outer loop
   vertex -2.05361 -2.67785 0.705871
   vertex -2.05675 -2.68545 0.705871
   vertex -2.05675 -2.68545 0.700054
  endloop
 endfacet
 facet normal 0.381604 0.924326 0
  outer loop
   vertex -3.35405 0.446505 0.700054
   vertex -3.35405 0.446505 0.705871
   vertex -3.34641 0.443349 0.705895
  endloop
 endfacet
 facet normal 0.915408 -0.379174 -0.135113
  outer loop
   vertex -2.05675 -2.68545 -0.704129
   vertex -2.53894 -2.20327 -5.32413
   vertex -1.75266 -1.38815 -2.28454
  endloop
 endfacet
 facet normal 0.915408 -0.379174 -0.135113
  outer loop
   vertex -1.75266 -1.38815 -2.28454
   vertex -2.53894 -2.20327 -5.32413
   vertex -2.2013 -1.38815 -5.32413
  endloop
 endfacet
 facet normal 0.915408 0.379174 -0.135113
  outer loop
   vertex -1.75266 -1.38815 -2.28454
   vertex -2.2013 -1.38815 -5.32413
   vertex -2.22243 -0.25653 -2.29155
  endloop
 endfacet
 facet normal 0.915408 0.379174 -0.135113
  outer loop
   vertex -2.22243 -0.25653 -2.29155
   vertex -2.2013 -1.38815 -5.32413
   vertex -2.53894 -0.573033 -5.32413
  endloop
 endfacet
 facet normal 0.379176 0.915407 -0.135113
  outer loop
   vertex -2.22243 -0.25653 -2.29155
   vertex -2.53894 -0.573033 -5.32413
   vertex -3.33365 0.435387 -0.72221
  endloop
 endfacet
 facet normal 0.379174 0.915408 -0.135113
  outer loop
   vertex -3.33365 0.435387 -0.72221
   vertex -2.53894 -0.573033 -5.32413
   vertex -3.35405 -0.235401 -5.32413
  endloop
 endfacet
 facet normal 0.379151 0.915417 -0.135114
  outer loop
   vertex -3.33365 0.435387 -0.72221
   vertex -3.35405 -0.235401 -5.32413
   vertex -3.35405 0.446505 -0.704129
  endloop
 endfacet
 facet normal -0 0 1
  outer loop
   vertex -3.35405 -0.235401 5.32587
   vertex -4.16917 -0.573033 5.32587
   vertex -4.5068 -1.38815 5.32587
  endloop
 endfacet
 facet normal 0 0 1
  outer loop
   vertex -2.2013 -1.38815 5.32587
   vertex -2.53894 -0.573033 5.32587
   vertex -2.53894 -2.20327 5.32587
  endloop
 endfacet
 facet normal 0 0 1
  outer loop
   vertex -2.53894 -2.20327 5.32587
   vertex -2.53894 -0.573033 5.32587
   vertex -3.35405 -0.235401 5.32587
  endloop
 endfacet
 facet normal 0 0 1
  outer loop
   vertex -2.53894 -2.20327 5.32587
   vertex -3.35405 -0.235401 5.32587
   vertex -3.35405 -2.5409 5.32587
  endloop
 endfacet
 facet normal 0 0 1
  outer loop
   vertex -3.35405 -2.5409 5.32587
   vertex -3.35405 -0.235401 5.32587
   vertex -4.5068 -1.38815 5.32587
  endloop
 endfacet
 facet normal 0 0 1
  outer loop
   vertex -3.35405 -2.5409 5.32587
   vertex -4.5068 -1.38815 5.32587
   vertex -4.16917 -2.20327 5.32587
  endloop
 endfacet
 facet normal -0.915408 -0.379174 0.135113
  outer loop
   vertex -4.65135 -2.68545 0.705871
   vertex -4.16917 -2.20327 5.32587
   vertex -5.18871 -1.38815 0.705871
  endloop
 endfacet
 facet normal -0.915408 -0.379174 0.135113
  outer loop
   vertex -5.18871 -1.38815 0.705871
   vertex -4.16917 -2.20327 5.32587
   vertex -4.5068 -1.38815 5.32587
  endloop
 endfacet
 facet normal -0.379174 -0.915408 0.135113
  outer loop
   vertex -3.35405 -3.2228 0.705871
   vertex -3.35405 -2.5409 5.32587
   vertex -4.65135 -2.68545 0.705871
  endloop
 endfacet
 facet normal -0.379174 -0.915408 0.135113
  outer loop
   vertex -4.65135 -2.68545 0.705871
   vertex -3.35405 -2.5409 5.32587
   vertex -4.16917 -2.20327 5.32587
  endloop
 endfacet
 facet normal -0.915408 0.379174 0.135113
  outer loop
   vertex -5.18871 -1.38815 0.705871
   vertex -4.5068 -1.38815 5.32587
   vertex -4.65135 -0.0908522 0.705871
  endloop
 endfacet
 facet normal -0.915408 0.379174 0.135113
  outer loop
   vertex -4.65135 -0.0908522 0.705871
   vertex -4.5068 -1.38815 5.32587
   vertex -4.16917 -0.573033 5.32587
  endloop
 endfacet
 facet normal -0.379174 0.915408 0.135113
  outer loop
   vertex -4.65135 -0.0908522 0.705871
   vertex -4.16917 -0.573033 5.32587
   vertex -3.35405 0.446505 0.705871
  endloop
 endfacet
 facet normal -0.379174 0.915408 0.135113
  outer loop
   vertex -3.35405 0.446505 0.705871
   vertex -4.16917 -0.573033 5.32587
   vertex -3.35405 -0.235401 5.32587
  endloop
 endfacet
 facet normal 0.379174 -0.915408 0.135113
  outer loop
   vertex -2.05675 -2.68545 0.705871
   vertex -2.53894 -2.20327 5.32587
   vertex -3.35405 -3.2228 0.705871
  endloop
 endfacet
 facet normal 0.379174 -0.915408 0.135113
  outer loop
   vertex -3.35405 -3.2228 0.705871
   vertex -2.53894 -2.20327 5.32587
   vertex -3.35405 -2.5409 5.32587
  endloop
 endfacet
 facet normal -0.92388 0.382683 0
  outer loop
   vertex -4.65135 -0.0908522 0.705871
   vertex -4.65135 -0.0908522 -0.704129
   vertex -5.18871 -1.38815 0.705871
  endloop
 endfacet
 facet normal -0.92388 0.382683 0
  outer loop
   vertex -5.18871 -1.38815 0.705871
   vertex -4.65135 -0.0908522 -0.704129
   vertex -5.18871 -1.38815 -0.704129
  endloop
 endfacet
 facet normal -0.382683 0.92388 0
  outer loop
   vertex -4.65135 -0.0908522 0.705871
   vertex -3.35405 0.446505 0.705871
   vertex -4.65135 -0.0908522 -0.704129
  endloop
 endfacet
 facet normal -0.382683 0.92388 0
  outer loop
   vertex -4.65135 -0.0908522 -0.704129
   vertex -3.35405 0.446505 0.705871
   vertex -3.35405 0.446505 0.700054
  endloop
 endfacet
 facet normal -0.382683 0.92388 0
  outer loop
   vertex -4.65135 -0.0908522 -0.704129
   vertex -3.35405 0.446505 0.700054
   vertex -3.35405 0.446505 -0.704129
  endloop
 endfacet
 facet normal -0.382684 0.923879 0
  outer loop
   vertex -3.35405 0.446505 -0.704129
   vertex -3.35405 0.446505 0.700054
   vertex 0.647722 2.1041 0.700054
  endloop
 endfacet
 facet normal -0.382684 0.923879 0
  outer loop
   vertex -3.35405 0.446505 -0.704129
   vertex 0.647722 2.1041 0.700054
   vertex 0.647722 2.1041 -0.704129
  endloop
 endfacet
 facet normal -0.923879 -0.382684 0
  outer loop
   vertex -5.18871 -1.38815 0.705871
   vertex -5.18871 -1.38815 -0.704129
   vertex -4.65135 -2.68545 0.705871
  endloop
 endfacet
 facet normal -0.923879 -0.382684 0
  outer loop
   vertex -4.65135 -2.68545 0.705871
   vertex -5.18871 -1.38815 -0.704129
   vertex -4.65135 -2.68545 -0.704129
  endloop
 endfacet
 facet normal -0.382683 -0.92388 0
  outer loop
   vertex -4.65135 -2.68545 0.705871
   vertex -4.65135 -2.68545 -0.704129
   vertex -3.35405 -3.2228 0.705871
  endloop
 endfacet
 facet normal -0.382683 -0.92388 0
  outer loop
   vertex -3.35405 -3.2228 0.705871
   vertex -4.65135 -2.68545 -0.704129
   vertex -3.35405 -3.2228 -0.704129
  endloop
 endfacet
 facet normal -0 0 -1
  outer loop
   vertex -2.2013 -1.38815 -5.32413
   vertex -2.53894 -2.20327 -5.32413
   vertex -3.35405 -2.5409 -5.32413
  endloop
 endfacet
 facet normal 0 0 -1
  outer loop
   vertex -2.53894 -0.573033 -5.32413
   vertex -2.2013 -1.38815 -5.32413
   vertex -3.35405 -0.235401 -5.32413
  endloop
 endfacet
 facet normal -0 0 -1
  outer loop
   vertex -3.35405 -0.235401 -5.32413
   vertex -2.2013 -1.38815 -5.32413
   vertex -3.35405 -2.5409 -5.32413
  endloop
 endfacet
 facet normal 0 0 -1
  outer loop
   vertex -3.35405 -0.235401 -5.32413
   vertex -3.35405 -2.5409 -5.32413
   vertex -4.16917 -0.573033 -5.32413
  endloop
 endfacet
 facet normal 0 0 -1
  outer loop
   vertex -4.16917 -0.573033 -5.32413
   vertex -3.35405 -2.5409 -5.32413
   vertex -4.16917 -2.20327 -5.32413
  endloop
 endfacet
 facet normal 0 0 -1
  outer loop
   vertex -4.16917 -0.573033 -5.32413
   vertex -4.16917 -2.20327 -5.32413
   vertex -4.5068 -1.38815 -5.32413
  endloop
 endfacet
 facet normal -0.915408 -0.379174 -0.135113
  outer loop
   vertex -5.18871 -1.38815 -0.704129
   vertex -4.5068 -1.38815 -5.32413
   vertex -4.65135 -2.68545 -0.704129
  endloop
 endfacet
 facet normal -0.915408 -0.379174 -0.135113
  outer loop
   vertex -4.65135 -2.68545 -0.704129
   vertex -4.5068 -1.38815 -5.32413
   vertex -4.16917 -2.20327 -5.32413
  endloop
 endfacet
 facet normal -0.915408 0.379174 -0.135113
  outer loop
   vertex -4.65135 -0.0908522 -0.704129
   vertex -4.16917 -0.573033 -5.32413
   vertex -5.18871 -1.38815 -0.704129
  endloop
 endfacet
 facet normal -0.915408 0.379174 -0.135113
  outer loop
   vertex -5.18871 -1.38815 -0.704129
   vertex -4.16917 -0.573033 -5.32413
   vertex -4.5068 -1.38815 -5.32413
  endloop
 endfacet
 facet normal -0.379174 -0.915408 -0.135113
  outer loop
   vertex -4.65135 -2.68545 -0.704129
   vertex -4.16917 -2.20327 -5.32413
   vertex -3.35405 -3.2228 -0.704129
  endloop
 endfacet
 facet normal -0.379174 -0.915408 -0.135113
  outer loop
   vertex -3.35405 -3.2228 -0.704129
   vertex -4.16917 -2.20327 -5.32413
   vertex -3.35405 -2.5409 -5.32413
  endloop
 endfacet
 facet normal 0.379174 -0.915408 -0.135113
  outer loop
   vertex -3.35405 -3.2228 -0.704129
   vertex -3.35405 -2.5409 -5.32413
   vertex -2.05675 -2.68545 -0.704129
  endloop
 endfacet
 facet normal 0.379174 -0.915408 -0.135113
  outer loop
   vertex -2.05675 -2.68545 -0.704129
   vertex -3.35405 -2.5409 -5.32413
   vertex -2.53894 -2.20327 -5.32413
  endloop
 endfacet
 facet normal -0.379174 0.915408 -0.135113
  outer loop
   vertex -3.35405 0.446505 -0.704129
   vertex -3.35405 -0.235401 -5.32413
   vertex -4.65135 -0.0908522 -0.704129
  endloop
 endfacet
 facet normal -0.379174 0.915408 -0.135113
  outer loop
   vertex -4.65135 -0.0908522 -0.704129
   vertex -3.35405 -0.235401 -5.32413
   vertex -4.16917 -0.573033 -5.32413
  endloop
 endfacet
 facet normal -0.00039668 0.000957672 0.999999
  outer loop
   vertex 4.27199 1.01072 1.69442
   vertex 3.73329 2.30746 1.69296
   vertex 3.62199 0.741483 1.69442
  endloop
 endfacet
 facet normal -0.00039668 0.000957672 0.999999
  outer loop
   vertex 3.62199 0.741483 1.69442
   vertex 3.73329 2.30746 1.69296
   vertex 2.4333 1.76899 1.69296
  endloop
 endfacet
 facet normal -0.00190744 -0.000790086 0.999998
  outer loop
   vertex 3.62199 0.741483 1.69442
   vertex 2.4333 1.76899 1.69296
   vertex 2.97066 0.471693 1.69296
  endloop
 endfacet
 facet normal 0 0 1
  outer loop
   vertex 2.97066 0.471693 1.69296
   vertex 2.4333 1.76899 1.69296
   vertex -1.56015 0.114849 1.69296
  endloop
 endfacet
 facet normal -0 0 1
  outer loop
   vertex 2.97066 0.471693 1.69296
   vertex -1.56015 0.114849 1.69296
   vertex -1.03165 -1.18612 1.69296
  endloop
 endfacet
 facet normal 0.924071 0.38222 -0
  outer loop
   vertex 3.08463 2.03878 -1.69413
   vertex 3.08463 2.03878 -1.69704
   vertex 3.08335 2.04189 -1.69367
  endloop
 endfacet
 facet normal 0.653281 0.270598 -0.707107
  outer loop
   vertex 5.18797 1.39013 -0.704129
   vertex 4.27064 1.01016 -1.69704
   vertex 4.65061 2.68743 -0.704129
  endloop
 endfacet
 facet normal 0.653282 0.270598 -0.707107
  outer loop
   vertex 4.65061 2.68743 -0.704129
   vertex 4.27064 1.01016 -1.69704
   vertex 3.73329 2.30746 -1.69704
  endloop
 endfacet
 facet normal 0.923879 0.382684 0
  outer loop
   vertex 5.18797 1.39013 -0.704129
   vertex 4.65061 2.68743 -0.704129
   vertex 5.18797 1.39013 0.701509
  endloop
 endfacet
 facet normal 0.923879 0.382684 -0
  outer loop
   vertex 5.18797 1.39013 0.701509
   vertex 4.65061 2.68743 -0.704129
   vertex 4.65061 2.68743 -0.701222
  endloop
 endfacet
 facet normal 0.923879 0.382684 -0
  outer loop
   vertex 5.18797 1.39013 0.701509
   vertex 4.65061 2.68743 -0.701222
   vertex 4.65061 2.68743 0.700054
  endloop
 endfacet
 facet normal 0.653198 0.272149 0.706588
  outer loop
   vertex 4.27199 1.01072 1.69442
   vertex 5.18797 1.39013 0.701509
   vertex 3.73329 2.30746 1.69296
  endloop
 endfacet
 facet normal 0.653001 0.271275 0.707106
  outer loop
   vertex 3.73329 2.30746 1.69296
   vertex 5.18797 1.39013 0.701509
   vertex 4.65061 2.68743 0.700054
  endloop
 endfacet
 facet normal -0.382686 0.923879 0
  outer loop
   vertex 4.65061 2.68743 -0.701222
   vertex 4.65061 2.68743 -0.704129
   vertex 3.73329 2.30746 -1.69413
  endloop
 endfacet
 facet normal -0.382686 0.923879 0
  outer loop
   vertex 3.73329 2.30746 -1.69413
   vertex 4.65061 2.68743 -0.704129
   vertex 3.73329 2.30746 -1.69704
  endloop
 endfacet
 facet normal -0.382683 0.92388 0
  outer loop
   vertex 3.73329 2.30746 -1.69413
   vertex 3.73329 2.30746 -1.69704
   vertex 3.08463 2.03878 -1.69413
  endloop
 endfacet
 facet normal -0.382683 0.92388 0
  outer loop
   vertex 3.08463 2.03878 -1.69413
   vertex 3.73329 2.30746 -1.69704
   vertex 3.08463 2.03878 -1.69704
  endloop
 endfacet
 facet normal -0.863787 -0.503857 -0
  outer loop
   vertex 4.40829 -3.93977 -0.440267
   vertex 4.40829 -3.93977 0.442009
   vertex 2.86491 -1.2939 -0.611483
  endloop
 endfacet
 facet normal -0.863787 -0.503857 0
  outer loop
   vertex 2.86491 -1.2939 -0.611483
   vertex 4.40829 -3.93977 0.442009
   vertex 2.86491 -1.2939 0.613225
  endloop
 endfacet
 facet normal -0.38268 0.923881 -0.000239953
  outer loop
   vertex 3.62199 0.741483 1.69442
   vertex 2.97066 0.471693 1.69296
   vertex 2.97334 0.472806 1.69587
  endloop
 endfacet
 facet normal 0.0499394 -0.125918 -0.990783
  outer loop
   vertex 4.27064 1.01016 -1.69704
   vertex 5.79978 -3.3634 -1.06413
   vertex 3.62199 0.741483 -1.69558
  endloop
 endfacet
 facet normal 0.0517589 -0.124957 -0.990811
  outer loop
   vertex 3.62199 0.741483 -1.69558
   vertex 5.79978 -3.3634 -1.06413
   vertex 4.98466 -3.70103 -1.06413
  endloop
 endfacet
 facet normal 0.0497873 -0.125565 -0.990835
  outer loop
   vertex 3.62199 0.741483 -1.69558
   vertex 4.98466 -3.70103 -1.06413
   vertex 2.97481 0.469767 -1.69367
  endloop
 endfacet
 facet normal 0.382684 -0.923879 1.5752e-06
  outer loop
   vertex 4.40829 -3.93977 -0.440267
   vertex 4.98466 -3.70103 -1.06413
   vertex 5.79978 -3.3634 -1.06413
  endloop
 endfacet
 facet normal 0.382684 -0.923879 -1.5752e-06
  outer loop
   vertex 4.98466 -3.70103 1.06587
   vertex 4.40829 -3.93977 0.442009
   vertex 5.79978 -3.3634 1.06587
  endloop
 endfacet
 facet normal 0.382683 -0.92388 0
  outer loop
   vertex 5.79978 -3.3634 1.06587
   vertex 4.40829 -3.93977 0.442009
   vertex 4.40829 -3.93977 -0.440267
  endloop
 endfacet
 facet normal 0.382683 -0.92388 4.61365e-07
  outer loop
   vertex 5.79978 -3.3634 1.06587
   vertex 4.40829 -3.93977 -0.440267
   vertex 6.37615 -3.12466 0.442009
  endloop
 endfacet
 facet normal 0.382683 -0.92388 -3.26234e-07
  outer loop
   vertex 6.37615 -3.12466 0.442009
   vertex 4.40829 -3.93977 -0.440267
   vertex 5.79978 -3.3634 -1.06413
  endloop
 endfacet
 facet normal 0.382682 -0.92388 0
  outer loop
   vertex 6.37615 -3.12466 0.442009
   vertex 5.79978 -3.3634 -1.06413
   vertex 6.37615 -3.12466 -0.440267
  endloop
 endfacet
 facet normal 0.699074 0.143033 -0.700598
  outer loop
   vertex 5.18797 1.39013 -0.704129
   vertex 6.37615 -3.12466 -0.440267
   vertex 4.27064 1.01016 -1.69704
  endloop
 endfacet
 facet normal 0.699074 0.143033 -0.700598
  outer loop
   vertex 4.27064 1.01016 -1.69704
   vertex 6.37615 -3.12466 -0.440267
   vertex 5.79978 -3.3634 -1.06413
  endloop
 endfacet
 facet normal 0.96707 0.254509 0
  outer loop
   vertex 5.18797 1.39013 0.701509
   vertex 6.37615 -3.12466 0.442009
   vertex 5.18797 1.39013 -0.704129
  endloop
 endfacet
 facet normal 0.96707 0.254509 0
  outer loop
   vertex 5.18797 1.39013 -0.704129
   vertex 6.37615 -3.12466 0.442009
   vertex 6.37615 -3.12466 -0.440267
  endloop
 endfacet
 facet normal 0.0515248 -0.124392 0.990895
  outer loop
   vertex 5.79978 -3.3634 1.06587
   vertex 4.27199 1.01072 1.69442
   vertex 4.98466 -3.70103 1.06587
  endloop
 endfacet
 facet normal 0.0515245 -0.124392 0.990895
  outer loop
   vertex 4.98466 -3.70103 1.06587
   vertex 4.27199 1.01072 1.69442
   vertex 3.62199 0.741483 1.69442
  endloop
 endfacet
 facet normal 0.0534946 -0.123783 0.990866
  outer loop
   vertex 4.98466 -3.70103 1.06587
   vertex 3.62199 0.741483 1.69442
   vertex 2.97334 0.472806 1.69587
  endloop
 endfacet
 facet normal 0.69941 0.143683 0.700129
  outer loop
   vertex 4.27199 1.01072 1.69442
   vertex 5.79978 -3.3634 1.06587
   vertex 5.18797 1.39013 0.701509
  endloop
 endfacet
 facet normal 0.698883 0.143656 0.700661
  outer loop
   vertex 5.18797 1.39013 0.701509
   vertex 5.79978 -3.3634 1.06587
   vertex 6.37615 -3.12466 0.442009
  endloop
 endfacet
 facet normal -0.967113 -0.254346 0
  outer loop
   vertex 0.332707 5.89954 0.442009
   vertex 0.332707 5.89954 -0.440267
   vertex 1.1116 2.93791 0.613393
  endloop
 endfacet
 facet normal -0.967113 -0.254346 0
  outer loop
   vertex 1.1116 2.93791 0.613393
   vertex 0.332707 5.89954 -0.440267
   vertex 1.1116 2.93791 -0.611654
  endloop
 endfacet
 facet normal -0.698996 -0.143288 -0.700623
  outer loop
   vertex 1.1116 2.93791 -0.611654
   vertex 0.332707 5.89954 -0.440267
   vertex 2.42833 1.77685 -1.68787
  endloop
 endfacet
 facet normal -0.698997 -0.143289 -0.700622
  outer loop
   vertex 2.42833 1.77685 -1.68787
   vertex 0.332707 5.89954 -0.440267
   vertex 0.909079 6.13829 -1.06413
  endloop
 endfacet
 facet normal -0.699041 -0.143311 -0.700574
  outer loop
   vertex 2.42833 1.77685 -1.68787
   vertex 0.909079 6.13829 -1.06413
   vertex 2.43487 1.77328 -1.69367
  endloop
 endfacet
 facet normal -0.698997 -0.143289 0.700622
  outer loop
   vertex 0.909079 6.13829 1.06587
   vertex 0.332707 5.89954 0.442009
   vertex 2.43599 1.7701 1.69587
  endloop
 endfacet
 facet normal -0.698998 -0.143289 0.700622
  outer loop
   vertex 2.43599 1.7701 1.69587
   vertex 0.332707 5.89954 0.442009
   vertex 1.1116 2.93791 0.613393
  endloop
 endfacet
 facet normal 0.382686 -0.923879 0
  outer loop
   vertex 4.65061 2.68743 0.700054
   vertex 4.65061 2.68743 0.702961
   vertex 3.73329 2.30746 1.69296
  endloop
 endfacet
 facet normal 0.382686 -0.923879 0
  outer loop
   vertex 3.73329 2.30746 1.69296
   vertex 4.65061 2.68743 0.702961
   vertex 3.73329 2.30746 1.69587
  endloop
 endfacet
 facet normal 0.382683 -0.92388 0
  outer loop
   vertex 3.73329 2.30746 1.69296
   vertex 3.73329 2.30746 1.69587
   vertex 2.4333 1.76899 1.69296
  endloop
 endfacet
 facet normal 0.382682 -0.92388 0.000331956
  outer loop
   vertex 2.4333 1.76899 1.69296
   vertex 3.73329 2.30746 1.69587
   vertex 2.43599 1.7701 1.69587
  endloop
 endfacet
 facet normal -0.0517053 0.124828 -0.99083
  outer loop
   vertex 2.43487 1.77328 -1.69367
   vertex 0.909079 6.13829 -1.06413
   vertex 3.08335 2.04189 -1.69367
  endloop
 endfacet
 facet normal -0.0517056 0.124828 -0.99083
  outer loop
   vertex 3.08335 2.04189 -1.69367
   vertex 0.909079 6.13829 -1.06413
   vertex 1.72419 6.47592 -1.06413
  endloop
 endfacet
 facet normal -0.0506635 0.12515 -0.990843
  outer loop
   vertex 3.08335 2.04189 -1.69367
   vertex 1.72419 6.47592 -1.06413
   vertex 3.08463 2.03878 -1.69413
  endloop
 endfacet
 facet normal -0.0517055 0.124828 -0.99083
  outer loop
   vertex 3.08463 2.03878 -1.69413
   vertex 1.72419 6.47592 -1.06413
   vertex 3.73329 2.30746 -1.69413
  endloop
 endfacet
 facet normal -0.382684 0.923879 5.94891e-08
  outer loop
   vertex 2.30057 6.71466 -0.440267
   vertex 1.72419 6.47592 -1.06413
   vertex 0.909079 6.13829 -1.06413
  endloop
 endfacet
 facet normal -0.382684 0.923879 -5.94891e-08
  outer loop
   vertex 1.72419 6.47592 1.06587
   vertex 2.30057 6.71466 0.442009
   vertex 0.909079 6.13829 1.06587
  endloop
 endfacet
 facet normal -0.382684 0.923879 0
  outer loop
   vertex 0.909079 6.13829 1.06587
   vertex 2.30057 6.71466 0.442009
   vertex 2.30057 6.71466 -0.440267
  endloop
 endfacet
 facet normal -0.382685 0.923879 -9.78896e-07
  outer loop
   vertex 0.909079 6.13829 1.06587
   vertex 2.30057 6.71466 -0.440267
   vertex 0.332707 5.89954 0.442009
  endloop
 endfacet
 facet normal -0.382684 0.923879 6.92183e-07
  outer loop
   vertex 0.332707 5.89954 0.442009
   vertex 2.30057 6.71466 -0.440267
   vertex 0.909079 6.13829 -1.06413
  endloop
 endfacet
 facet normal -0.382686 0.923879 0
  outer loop
   vertex 0.332707 5.89954 0.442009
   vertex 0.909079 6.13829 -1.06413
   vertex 0.332707 5.89954 -0.440267
  endloop
 endfacet
 facet normal 0.863702 0.504002 0
  outer loop
   vertex 2.30057 6.71466 0.442009
   vertex 4.65061 2.68743 0.702961
   vertex 2.30057 6.71466 -0.440267
  endloop
 endfacet
 facet normal 0.863702 0.504002 0
  outer loop
   vertex 2.30057 6.71466 -0.440267
   vertex 4.65061 2.68743 0.702961
   vertex 4.65061 2.68743 0.700054
  endloop
 endfacet
 facet normal 0.863702 0.504002 0
  outer loop
   vertex 2.30057 6.71466 -0.440267
   vertex 4.65061 2.68743 0.700054
   vertex 4.65061 2.68743 -0.701222
  endloop
 endfacet
 facet normal 0.595585 0.392945 -0.700623
  outer loop
   vertex 3.73329 2.30746 -1.69413
   vertex 1.72419 6.47592 -1.06413
   vertex 4.65061 2.68743 -0.701222
  endloop
 endfacet
 facet normal 0.595584 0.392944 -0.700624
  outer loop
   vertex 4.65061 2.68743 -0.701222
   vertex 1.72419 6.47592 -1.06413
   vertex 2.30057 6.71466 -0.440267
  endloop
 endfacet
 facet normal 0.595587 0.392945 0.700622
  outer loop
   vertex 4.65061 2.68743 0.702961
   vertex 2.30057 6.71466 0.442009
   vertex 3.73329 2.30746 1.69587
  endloop
 endfacet
 facet normal 0.595584 0.392945 0.700624
  outer loop
   vertex 3.73329 2.30746 1.69587
   vertex 2.30057 6.71466 0.442009
   vertex 1.72419 6.47592 1.06587
  endloop
 endfacet
 facet normal -0.0517054 0.124828 0.99083
  outer loop
   vertex 3.73329 2.30746 1.69587
   vertex 1.72419 6.47592 1.06587
   vertex 2.43599 1.7701 1.69587
  endloop
 endfacet
 facet normal -0.0517057 0.124828 0.99083
  outer loop
   vertex 2.43599 1.7701 1.69587
   vertex 1.72419 6.47592 1.06587
   vertex 0.909079 6.13829 1.06587
  endloop
 endfacet
 facet normal -0.0870672 0.887317 0.452866
  outer loop
   vertex -2.22243 -0.25653 2.29329
   vertex -1.56015 0.114849 1.69296
   vertex -3.34641 0.443349 0.705895
  endloop
 endfacet
 facet normal 0.566771 -0.686948 0.454834
  outer loop
   vertex -1.03165 -1.18612 1.69296
   vertex -1.75266 -1.38815 2.28629
   vertex -2.05675 -2.68545 0.705871
  endloop
 endfacet
 facet normal 0.577377 0.234548 0.782063
  outer loop
   vertex -1.56015 0.114849 1.69296
   vertex -2.22243 -0.25653 2.29329
   vertex -1.03165 -1.18612 1.69296
  endloop
 endfacet
 facet normal 0.577547 0.234918 0.781827
  outer loop
   vertex -1.03165 -1.18612 1.69296
   vertex -2.22243 -0.25653 2.29329
   vertex -1.75266 -1.38815 2.28629
  endloop
 endfacet
 facet normal 0.503801 0.207584 -0.838507
  outer loop
   vertex -1.03165 -1.18612 1.69296
   vertex -2.05675 -2.68545 0.705871
   vertex -2.05073 -2.66809 0.713785
  endloop
 endfacet
 facet normal 0.566771 -0.686947 -0.454834
  outer loop
   vertex -2.05675 -2.68545 -0.704129
   vertex -1.75266 -1.38815 -2.28454
   vertex -1.04103 -1.19 -1.69704
  endloop
 endfacet
 facet normal 0.566624 -0.687257 -0.45455
  outer loop
   vertex -1.04103 -1.19 -1.69704
   vertex -1.75266 -1.38815 -2.28454
   vertex -1.03872 -1.1881 -1.69704
  endloop
 endfacet
 facet normal 0.577546 0.234917 -0.781828
  outer loop
   vertex -1.75266 -1.38815 -2.28454
   vertex -2.22243 -0.25653 -2.29155
   vertex -1.03872 -1.1881 -1.69704
  endloop
 endfacet
 facet normal 0.577375 0.234549 -0.782064
  outer loop
   vertex -1.03872 -1.1881 -1.69704
   vertex -2.22243 -0.25653 -2.29155
   vertex -1.56656 0.111252 -1.69704
  endloop
 endfacet
 facet normal -0.0877632 0.887562 -0.452252
  outer loop
   vertex -1.56656 0.111252 -1.69704
   vertex -2.22243 -0.25653 -2.29155
   vertex -1.56954 0.110958 -1.69704
  endloop
 endfacet
 facet normal -0.0870661 0.887317 -0.452866
  outer loop
   vertex -1.56954 0.110958 -1.69704
   vertex -2.22243 -0.25653 -2.29155
   vertex -3.33365 0.435387 -0.72221
  endloop
 endfacet
 facet normal -0.411376 0.323371 -0.852174
  outer loop
   vertex 2.42833 1.77685 -1.68787
   vertex 0.647722 2.1041 -0.704129
   vertex 1.1116 2.93791 -0.611654
  endloop
 endfacet
 facet normal -0.183509 -0.983018 -0.000159537
  outer loop
   vertex 0.647722 2.1041 0.700054
   vertex 2.42879 1.77145 1.68897
   vertex 2.43599 1.7701 1.69587
  endloop
 endfacet
 facet normal -0.414821 0.319331 0.852028
  outer loop
   vertex 2.43599 1.7701 1.69587
   vertex 1.1116 2.93791 0.613393
   vertex 0.647722 2.1041 0.700054
  endloop
 endfacet
 facet normal -0.87387 0.48616 0
  outer loop
   vertex 1.1116 2.93791 0.613393
   vertex 1.1116 2.93791 -0.611654
   vertex 0.647722 2.1041 0.700054
  endloop
 endfacet
 facet normal -0.87387 0.48616 0
  outer loop
   vertex 0.647722 2.1041 0.700054
   vertex 1.1116 2.93791 -0.611654
   vertex 0.647722 2.1041 -0.704129
  endloop
 endfacet
 facet normal -0.0675223 -0.519124 0.852028
  outer loop
   vertex 1.94724 -1.03323 0.700054
   vertex 2.86486 -1.29482 0.613393
   vertex 2.97557 0.46743 1.69587
  endloop
 endfacet
 facet normal -0.0622291 -0.519545 -0.852174
  outer loop
   vertex 2.97557 0.46743 -1.69413
   vertex 2.86486 -1.29482 -0.611654
   vertex 1.94724 -1.03323 -0.704129
  endloop
 endfacet
 facet normal -0.824884 0.565301 0
  outer loop
   vertex 1.94724 -1.03323 -0.704129
   vertex 1.94724 -1.03323 0.700054
   vertex 1.95327 -1.02444 0.700054
  endloop
 endfacet
 facet normal -0.824884 0.565301 -7.59748e-05
  outer loop
   vertex 1.95327 -1.02444 0.700054
   vertex 1.94724 -1.03323 0.700054
   vertex 2.96475 0.451641 1.6767
  endloop
 endfacet
 facet normal -0.824856 0.565343 -0.00017004
  outer loop
   vertex 2.96475 0.451641 1.6767
   vertex 1.94724 -1.03323 0.700054
   vertex 2.97557 0.46743 1.69587
  endloop
 endfacet
 facet normal -0.824952 0.565203 0
  outer loop
   vertex 2.96475 0.451641 1.6767
   vertex 2.97557 0.46743 1.69587
   vertex 2.97557 0.46743 1.69475
  endloop
 endfacet
 facet normal -0.82479 0.565439 0
  outer loop
   vertex 2.97557 0.46743 -1.69301
   vertex 2.97557 0.46743 -1.69413
   vertex 2.97302 0.463719 -1.68877
  endloop
 endfacet
 facet normal -0.825007 0.565122 -0.000322005
  outer loop
   vertex 2.97302 0.463719 -1.68877
   vertex 2.97557 0.46743 -1.69413
   vertex 1.94724 -1.03323 -0.704129
  endloop
 endfacet
 facet normal -0.824884 0.565301 7.84384e-05
  outer loop
   vertex 2.97302 0.463719 -1.68877
   vertex 1.94724 -1.03323 -0.704129
   vertex 1.95327 -1.02444 -0.704129
  endloop
 endfacet
 facet normal -0.824884 0.565301 0
  outer loop
   vertex 1.95327 -1.02444 -0.704129
   vertex 1.94724 -1.03323 -0.704129
   vertex 1.95327 -1.02444 0.700054
  endloop
 endfacet
 facet normal -0.274153 -0.961686 -0
  outer loop
   vertex 2.86486 -1.29482 -0.611654
   vertex 2.86486 -1.29482 0.613393
   vertex 1.94724 -1.03323 -0.704129
  endloop
 endfacet
 facet normal -0.274153 -0.961686 0
  outer loop
   vertex 1.94724 -1.03323 -0.704129
   vertex 2.86486 -1.29482 0.613393
   vertex 1.94724 -1.03323 0.700054
  endloop
 endfacet
 facet normal 0.998032 -0.0627013 0
  outer loop
   vertex 2.97557 0.46743 1.69475
   vertex 2.97557 0.46743 1.69587
   vertex 2.86491 -1.2939 0.613225
  endloop
 endfacet
 facet normal 0.998108 -0.0614432 -0.00205451
  outer loop
   vertex 2.86491 -1.2939 0.613225
   vertex 2.97557 0.46743 1.69587
   vertex 2.86486 -1.29482 0.613393
  endloop
 endfacet
 facet normal 0.998133 -0.0610708 0
  outer loop
   vertex 2.86491 -1.2939 0.613225
   vertex 2.86486 -1.29482 0.613393
   vertex 2.86491 -1.2939 -0.611483
  endloop
 endfacet
 facet normal 0.998133 -0.0610708 0
  outer loop
   vertex 2.86491 -1.2939 -0.611483
   vertex 2.86486 -1.29482 0.613393
   vertex 2.86486 -1.29482 -0.611654
  endloop
 endfacet
 facet normal 0.998108 -0.0614483 0.00204818
  outer loop
   vertex 2.86491 -1.2939 -0.611483
   vertex 2.86486 -1.29482 -0.611654
   vertex 2.97557 0.46743 -1.69301
  endloop
 endfacet
 facet normal 0.998032 -0.0627004 0
  outer loop
   vertex 2.97557 0.46743 -1.69301
   vertex 2.86486 -1.29482 -0.611654
   vertex 2.97557 0.46743 -1.69413
  endloop
 endfacet
endsolid
